<svg xmlns="http://www.w3.org/2000/svg" xmlns:xlink="http://www.w3.org/1999/xlink" fill="none" version="1.1" width="23.9990234375" height="24" viewBox="0 0 23.9990234375 24"><g><g><path d="M18.6,1C18.6,1,8.6999998,1,8.6999998,1C4.447400099999999,1,0.999999978472699,4.447400099999999,1,8.6999998C1,8.6999998,1,18.6,1,18.6C1,21.0299,2.9701,23,5.4000001,23C5.4000001,23,15.3,23,15.3,23C19.552601,23,23,19.552601,23,15.3C23,15.3,23,5.4000001,23,5.4000001C23,2.9701,21.0299,1.0000000000000007,18.6,1.0000000000000007C18.6,1.0000000000000007,18.6,1,18.6,1C18.6,1,18.6,1,18.6,1ZM16.444000000000003,15.311C16.444000000000003,15.311,7.6440001,15.311,7.6440001,15.311C7.0367999,15.311,6.5440001,14.8182,6.5440001,14.211C6.5440001,13.6038,7.0367999,13.111,7.6440001,13.111C7.6440001,13.111,16.444000000000003,13.111,16.444000000000003,13.111C17.051201,13.111,17.544001,13.6038,17.544001,14.211C17.544001,14.8182,17.052299,15.311,16.444000000000003,15.311C16.444000000000003,15.311,16.444000000000003,15.311,16.444000000000003,15.311ZM16.444000000000003,10.8900995C16.444000000000003,10.8900995,7.6440001,10.8900995,7.6440001,10.8900995C7.0367999,10.8900995,6.5440001,10.3972998,6.5440001,9.7901001C6.5440001,9.1829004,7.0367999,8.6901002,7.6440001,8.6901002C7.6440001,8.6901002,16.444000000000003,8.6901002,16.444000000000003,8.6901002C17.051201,8.6901002,17.544001,9.1829004,17.544001,9.7901001C17.544001,10.3972998,17.052299,10.8900995,16.444000000000003,10.8900995C16.444000000000003,10.8900995,16.444000000000003,10.8900995,16.444000000000003,10.8900995Z" fill="#494C52" fill-opacity="1"/></g></g></svg>