<svg xmlns="http://www.w3.org/2000/svg" xmlns:xlink="http://www.w3.org/1999/xlink" fill="none" version="1.1" width="84.5999755859375" height="38" viewBox="0 0 84.5999755859375 38"><defs><clipPath id="master_svg0_0_1631"><rect x="24.999988555908203" y="0" width="37" height="38" rx="0"/></clipPath><linearGradient x1="0.5" y1="-3.0616171314629196e-17" x2="0.5" y2="1" id="master_svg1_0_131"><stop offset="0%" stop-color="#E8CDA8" stop-opacity="1"/><stop offset="100%" stop-color="#F4E6CF" stop-opacity="1"/></linearGradient></defs><g><g clip-path="url(#master_svg0_0_1631)"><g><path d="M43.4999885559082,0C53.7170755559082,0,61.9999885559082,8.5068226,61.9999885559082,19C61.9999885559082,29.493227,53.7170755559082,38,43.4999885559082,38C33.282946555908204,38,24.999988555908203,29.493227,24.999988555908203,19C24.999988555908203,8.5068226,33.282946555908204,0,43.4999885559082,0C43.4999885559082,0,43.4999885559082,0,43.4999885559082,0ZM43.4999885559082,11.227274C43.053983555908204,11.227274,42.6261715559082,11.409247,42.3107455559082,11.733181C41.995321555908205,12.057099,41.818183555908206,12.496443,41.818183555908206,12.954549C41.818183555908206,12.954549,41.818183555908206,17.272741,41.818183555908206,17.272741C41.818183555908206,17.272741,37.6136275559082,17.272741,37.6136275559082,17.272741C37.6136275559082,17.272741,37.4874885559082,17.277018,37.4874885559082,17.277018C37.0521515559082,17.308683,36.6458315559082,17.512775,36.3543625559082,17.846384C36.0628805559082,18.179991,35.909083555908204,18.616991,35.9254715559082,19.064758C35.94184355590821,19.512684,36.1271055559082,19.936543,36.442114555908205,20.246717C36.757122555908204,20.557051,37.1772115559082,20.729317,37.6136275559082,20.727259C37.6136275559082,20.727259,41.818183555908206,20.727259,41.818183555908206,20.727259C41.818183555908206,20.727259,41.818183555908206,25.045485,41.818183555908206,25.045485C41.818183555908206,25.045485,41.8223475559082,25.174999,41.8223475559082,25.174999C41.8531795559082,25.622133,42.051900555908205,26.039343,42.3767295559082,26.338751C42.701559555908204,26.638161,43.1270575559082,26.796017,43.5630415559082,26.779234C43.9991795559082,26.762449,44.4118845559082,26.572134,44.713897555908204,26.248659C45.016063555908204,25.925184,45.183795555908205,25.493725,45.1817935559082,25.045485C45.1817935559082,25.045485,45.1817935559082,20.727259,45.1817935559082,20.727259C45.1817935559082,20.727259,49.386379555908206,20.727259,49.386379555908206,20.727259C49.386379555908206,20.727259,49.5124875559082,20.722982,49.5124875559082,20.722982C49.94785455590821,20.691317,50.354083555908204,20.487225,50.6456125559082,20.153616C50.93714355590821,19.820009,51.0908455559082,19.383009,51.074504555908206,18.935242C51.058162555908204,18.487316,50.872854555908205,18.063457,50.5578915559082,17.753283C50.242929555908205,17.442949,49.8228245559082,17.270683,49.386379555908206,17.272741C49.386379555908206,17.272741,45.1817935559082,17.272741,45.1817935559082,17.272741C45.1817935559082,17.272741,45.1817935559082,12.954549,45.1817935559082,12.954549C45.1817935559082,12.954549,45.177629555908204,12.825001,45.177629555908204,12.825001C45.145717555908206,12.390454,44.955167555908204,11.984329,44.6440585559082,11.688025C44.3329505559082,11.391719,43.9242555559082,11.227132,43.4999885559082,11.227274C43.4999885559082,11.227274,43.4999885559082,11.227274,43.4999885559082,11.227274Z" fill="url(#master_svg1_0_131)" fill-opacity="1"/></g></g></g></svg>