<svg xmlns="http://www.w3.org/2000/svg" xmlns:xlink="http://www.w3.org/1999/xlink" fill="none" version="1.1" width="22" height="22" viewBox="0 0 22 22"><defs><clipPath id="master_svg0_0_80"><rect x="0" y="0" width="22" height="22" rx="0"/></clipPath></defs><g clip-path="url(#master_svg0_0_80)"><g><path d="M10.455329273069763,19.030458C10.455329273069763,19.030458,7.628187573069763,16.247917,7.628187573069763,16.247917C7.628187573069763,16.247917,3.362642373069763,16.247917,3.362642373069763,16.247917C3.1617184730697634,16.248192,2.9627196730697634,16.209600000000002,2.777040063069763,16.13425C2.591362233069763,16.0589,2.422653673069763,15.948258,2.280584333069763,15.808834C2.1385159230697632,15.669316,2.025879783069763,15.503675,1.9491320030697632,15.32135C1.8723839450697632,15.139025,1.8330333440097633,14.943684,1.8333350954229632,14.746417C1.8333350954229632,14.746417,1.8409739779697631,4.2507668,1.8409739779697631,4.2507668C1.8409739779697631,3.41975886,2.520834033069763,2.75,3.3702780730697635,2.75C3.3702780730697635,2.75,18.638097373069762,2.75,18.638097373069762,2.75C19.482985373069763,2.75,20.167367373069762,3.41975886,20.166635373069763,4.2515184C20.166635373069763,4.2515184,20.159026373069764,14.747884,20.159026373069764,14.747884C20.159026373069764,15.576642,19.474553373069764,16.247917,18.630486373069765,16.247917C18.630486373069765,16.247917,14.373312373069764,16.247917,14.373312373069764,16.247917C14.373312373069764,16.247917,11.534674973069762,19.030458,11.534674973069762,19.030458C11.463816073069763,19.100033,11.379666673069764,19.155308,11.287083973069763,19.192984C11.194500373069763,19.230566,11.095225673069763,19.25,10.995016473069763,19.25C10.894787173069764,19.25,10.795540173069764,19.230566,10.702938473069763,19.192984C10.610337573069764,19.155308,10.526196873069763,19.100033,10.455329273069763,19.030458C10.455329273069763,19.030458,10.455329273069763,19.030458,10.455329273069763,19.030458C10.455329273069763,19.030458,10.455329273069763,19.030458,10.455329273069763,19.030458ZM18.631953373069763,14.746417C18.631953373069763,14.746417,18.638829373069765,4.2507668,18.638829373069765,4.2507668C18.638829373069765,4.2507668,3.3687473730697635,4.2485209,3.3687473730697635,4.2515184C3.3687473730697635,4.2515184,3.361872473069763,14.74715,3.363403173069763,14.74715C3.363403173069763,14.74715,7.944436873069763,14.74715,7.944436873069763,14.74715C8.146863773069764,14.74715,8.341655173069764,14.825892,8.484499373069763,14.966876C8.484499373069763,14.966876,10.996931473069763,17.438942,10.996931473069763,17.438942C10.996931473069763,17.438942,13.517788373069763,14.966142,13.517788373069763,14.966142C13.588737373069764,14.896659,13.672888373069764,14.841475,13.765562373069763,14.803892C13.858237373069763,14.766309,13.957603373069762,14.747059,14.057796373069763,14.74715C14.057796373069763,14.74715,18.631953373069763,14.74715,18.631953373069763,14.74715C18.631953373069763,14.74715,18.631953373069763,14.746417,18.631953373069763,14.746417C18.631953373069763,14.746417,18.631953373069763,14.746417,18.631953373069763,14.746417ZM6.7986052730697635,11.0001106C6.494712673069763,11.0001106,6.203268373069763,10.8815851,5.9883745730697635,10.6706057C5.773489873069764,10.4596248,5.652774173069764,10.1734691,5.652774173069764,9.8750944C5.652774173069764,9.5767283,5.773489873069764,9.2905726,5.9883745730697635,9.0795927C6.203268373069763,8.868612800000001,6.494712673069763,8.7500782,6.7986052730697635,8.7500782C7.102498373069763,8.7500782,7.393943173069763,8.868612800000001,7.608827473069764,9.0795927C7.823711773069763,9.2905726,7.944436873069763,9.5767283,7.944436873069763,9.8750944C7.944436873069763,10.1734691,7.823711773069763,10.4596248,7.608827473069764,10.6706057C7.393943173069763,10.8815851,7.102498373069763,11.0001106,6.7986052730697635,11.0001106C6.7986052730697635,11.0001106,6.7986052730697635,11.0001106,6.7986052730697635,11.0001106ZM10.999984173069763,11.0001106C10.696091073069763,11.0001106,10.404647273069763,10.8815851,10.189762473069763,10.6706057C9.974876773069763,10.4596248,9.854153073069764,10.1734691,9.854153073069764,9.8750944C9.854153073069764,9.5767283,9.974876773069763,9.2905726,10.189762473069763,9.0795927C10.404647273069763,8.868612800000001,10.696091073069763,8.7500782,10.999984173069763,8.7500782C11.303859073069763,8.7500782,11.595358273069763,8.868612800000001,11.810223973069764,9.0795927C12.025091373069763,9.2905726,12.145815373069762,9.5767283,12.145815373069762,9.8750944C12.145815373069762,10.1734691,12.025091373069763,10.4596248,11.810223973069764,10.6706057C11.595358273069763,10.8815851,11.303859073069763,11.0001106,10.999984173069763,11.0001106C10.999984173069763,11.0001106,10.999984173069763,11.0001106,10.999984173069763,11.0001106C10.999984173069763,11.0001106,10.999984173069763,11.0001106,10.999984173069763,11.0001106ZM15.201335373069764,11.0001106C14.897460373069762,11.0001106,14.606052373069764,10.8815851,14.391187373069764,10.6706057C14.176229373069763,10.4596248,14.055503373069763,10.1734691,14.055503373069763,9.8750944C14.055503373069763,9.5767283,14.176229373069763,9.2905726,14.391187373069764,9.0795927C14.606052373069764,8.868612800000001,14.897460373069762,8.7500782,15.201335373069764,8.7500782C15.505301373069763,8.7500782,15.796708373069762,8.868612800000001,16.011576373069765,9.0795927C16.22644137306976,9.2905726,16.34716637306976,9.5767283,16.34716637306976,9.8750944C16.34716637306976,10.1734691,16.22644137306976,10.4596248,16.011576373069765,10.6706057C15.796708373069762,10.8815851,15.505301373069763,11.0001106,15.201335373069764,11.0001106C15.201335373069764,11.0001106,15.201335373069764,11.0001106,15.201335373069764,11.0001106Z" fill="#FFFFFF" fill-opacity="1"/></g></g></svg>