<svg xmlns="http://www.w3.org/2000/svg" xmlns:xlink="http://www.w3.org/1999/xlink" fill="none" version="1.1" width="22" height="22" viewBox="0 0 22 22"><defs><clipPath id="master_svg0_0_100"><rect x="0" y="0" width="22" height="22" rx="0"/></clipPath></defs><g clip-path="url(#master_svg0_0_100)"><g><path d="M17.090397373069763,9.068377373069763C17.686963373069766,8.490658173069763,18.015586373069763,7.7223647730697635,18.015586373069763,6.905075873069763C18.015586373069763,6.087786573069764,17.686963373069766,5.319309373069763,17.090397373069763,4.7417827730697635C17.090397373069763,4.7417827730697635,15.012959373069764,2.7291817630697635,15.012959373069764,2.7291817630697635C14.416575373069763,2.151654453069763,13.623295373069762,1.8333333730697632,12.779779373069763,1.8333333730697632C11.936356373069763,1.8333333730697632,11.142798773069764,2.151654453069763,10.546628373069764,2.7293761330697635C10.546628373069764,2.7293761330697635,3.072673573069763,9.969477073069763,3.072673573069763,9.969477073069763C3.072673573069763,9.969477073069763,2.424095573069763,16.936946373069762,2.424095573069763,16.936946373069762C2.424095573069763,16.936946373069762,9.617019973069763,16.308480373069763,9.617019973069763,16.308480373069763C9.617019973069763,16.308480373069763,17.090397373069763,9.068377373069763,17.090397373069763,9.068377373069763C17.090397373069763,9.068377373069763,17.090397373069763,9.068377373069763,17.090397373069763,9.068377373069763C17.090397373069763,9.068377373069763,17.090397373069763,9.068377373069763,17.090397373069763,9.068377373069763ZM11.682806373069763,3.829985473069763C12.287622373069762,3.244098973069763,13.272028373069762,3.244098973069763,13.876844373069764,3.829985473069763C13.876844373069764,3.829985473069763,15.954190373069764,5.842385673069763,15.954190373069764,5.842385673069763C16.559006373069764,6.428272173069764,16.559006373069764,7.381878773069763,15.954190373069764,7.967765173069763C15.954190373069764,7.967765173069763,9.254496973069763,14.457826373069762,9.254496973069763,14.457826373069762C9.254496973069763,14.457826373069762,4.983260073069763,10.320074473069763,4.983260073069763,10.320074473069763C4.983260073069763,10.320074473069763,11.682806373069763,3.829985473069763,11.682806373069763,3.829985473069763C11.682806373069763,3.829985473069763,11.682806373069763,3.829985473069763,11.682806373069763,3.829985473069763ZM4.493064273069763,12.046631373069763C4.493064273069763,12.046631373069763,7.472371973069763,14.932751373069763,7.472371973069763,14.932751373069763C7.472371973069763,14.932751373069763,4.197586373069763,15.218933373069763,4.197586373069763,15.218933373069763C4.197586373069763,15.218933373069763,4.493064273069763,12.046631373069763,4.493064273069763,12.046631373069763C4.493064273069763,12.046631373069763,4.493064273069763,12.046631373069763,4.493064273069763,12.046631373069763C4.493064273069763,12.046631373069763,4.493064273069763,12.046631373069763,4.493064273069763,12.046631373069763ZM19.363084373069764,18.609860373069765C19.363084373069764,18.609860373069765,2.6368744930697634,18.609860373069765,2.6368744930697634,18.609860373069765C2.1930501130697633,18.609860373069765,1.8333333730697632,18.958467373069762,1.8333333730697632,19.388202373069763C1.8333333730697632,19.817933373069764,2.1930501130697633,20.166633373069764,2.6368744930697634,20.166633373069764C2.6368744930697634,20.166633373069764,19.363084373069764,20.166633373069764,19.363084373069764,20.166633373069764C19.806931373069762,20.166633373069764,20.166633373069764,19.817933373069764,20.166633373069764,19.388202373069763C20.166633373069764,18.958467373069762,19.807116373069764,18.609860373069765,19.363084373069764,18.609860373069765C19.363084373069764,18.609860373069765,19.363084373069764,18.609860373069765,19.363084373069764,18.609860373069765Z" fill="#FFFFFF" fill-opacity="1"/></g></g></svg>