<svg xmlns="http://www.w3.org/2000/svg" xmlns:xlink="http://www.w3.org/1999/xlink" fill="none" version="1.1" width="22" height="22" viewBox="0 0 22 22"><defs><clipPath id="master_svg0_0_1491"><rect x="0" y="0" width="22" height="22" rx="0"/></clipPath></defs><g><g clip-path="url(#master_svg0_0_1491)"><g><path d="M16.500000746139527,10.0833335C16.500000746139527,13.120892,14.037558746139526,15.583334,11.000000246139527,15.583334C11.000000246139527,15.583334,11.000000246139527,17.416667,11.000000246139527,17.416667C15.050108746139527,17.416667,18.333333746139527,14.133442,18.333333746139527,10.0833335C18.333333746139527,10.0833335,16.500000746139527,10.0833335,16.500000746139527,10.0833335C16.500000746139527,10.0833335,16.500000746139527,10.0833335,16.500000746139527,10.0833335ZM11.000000246139527,15.583334C7.9624326461395265,15.583334,5.500000146139526,13.120892,5.500000146139526,10.0833335C5.500000146139526,10.0833335,3.6666667461395264,10.0833335,3.6666667461395264,10.0833335C3.6666667461395264,14.133442,6.949910146139526,17.416667,11.000000246139527,17.416667C11.000000246139527,17.416667,11.000000246139527,15.583334,11.000000246139527,15.583334C11.000000246139527,15.583334,11.000000246139527,15.583334,11.000000246139527,15.583334ZM5.500000146139526,10.0833335C5.500000146139526,7.0457659,7.9624326461395265,4.5833334,11.000000246139527,4.5833334C11.000000246139527,4.5833334,11.000000246139527,2.75,11.000000246139527,2.75C6.949910146139526,2.75,3.6666667461395264,6.0332434,3.6666667461395264,10.0833335C3.6666667461395264,10.0833335,5.500000146139526,10.0833335,5.500000146139526,10.0833335C5.500000146139526,10.0833335,5.500000146139526,10.0833335,5.500000146139526,10.0833335ZM11.000000246139527,4.5833334C14.037558746139526,4.5833334,16.500000746139527,7.0457659,16.500000746139527,10.0833335C16.500000746139527,10.0833335,18.333333746139527,10.0833335,18.333333746139527,10.0833335C18.333333746139527,6.0332434,15.050108746139527,2.75,11.000000246139527,2.75C11.000000246139527,2.75,11.000000246139527,4.5833334,11.000000246139527,4.5833334C11.000000246139527,4.5833334,11.000000246139527,4.5833334,11.000000246139527,4.5833334ZM16.31015874613953,16.689842C16.31015874613953,16.689842,19.06015874613953,19.439842,19.06015874613953,19.439842C19.06015874613953,19.439842,20.356508746139525,18.143492000000002,20.356508746139525,18.143492000000002C20.356508746139525,18.143492000000002,17.606508746139525,15.393492,17.606508746139525,15.393492C17.606508746139525,15.393492,16.31015874613953,16.689842,16.31015874613953,16.689842C16.31015874613953,16.689842,16.31015874613953,16.689842,16.31015874613953,16.689842Z" fill="#E8CDA7" fill-opacity="1"/></g></g></g></svg>