<svg xmlns="http://www.w3.org/2000/svg" xmlns:xlink="http://www.w3.org/1999/xlink" fill="none" version="1.1" width="90" height="22" viewBox="0 0 90 22"><defs><clipPath id="master_svg0_0_1304"><rect x="0" y="0" width="22" height="22" rx="0"/></clipPath><clipPath id="master_svg1_0_1306"><rect x="34" y="0" width="22" height="22" rx="0"/></clipPath><clipPath id="master_svg2_0_1308"><rect x="68" y="0" width="22" height="22" rx="0"/></clipPath></defs><g><g clip-path="url(#master_svg0_0_1304)"><g><path d="M4.583333386534882,3.66666663C4.583333386534882,3.66666663,5.496837786534882,3.5905416,5.496837786534882,3.5905416C5.496837786534882,3.5905416,5.426785686534882,2.75,5.426785686534882,2.75C5.426785686534882,2.75,4.583333386534882,2.75,4.583333386534882,2.75C4.583333386534882,2.75,4.583333386534882,3.66666663,4.583333386534882,3.66666663C4.583333386534882,3.66666663,4.583333386534882,3.66666663,4.583333386534882,3.66666663ZM5.500000186534882,14.666666C5.500000186534882,14.666666,4.586495786534881,14.742749,4.586495786534881,14.742749C4.586495786534881,14.742749,4.656547686534882,15.583333,4.656547686534882,15.583333C4.656547686534882,15.583333,5.500000186534882,15.583333,5.500000186534882,15.583333C5.500000186534882,15.583333,5.500000186534882,14.666666,5.500000186534882,14.666666C5.500000186534882,14.666666,5.500000186534882,14.666666,5.500000186534882,14.666666ZM17.41666668653488,14.666666C17.41666668653488,14.666666,17.41666668653488,15.583333,17.41666668653488,15.583333C17.41666668653488,15.583333,18.27787668653488,15.583333,18.27787668653488,15.583333C18.27787668653488,15.583333,18.33159368653488,14.723866,18.33159368653488,14.723866C18.33159368653488,14.723866,17.41666668653488,14.666666,17.41666668653488,14.666666C17.41666668653488,14.666666,17.41666668653488,14.666666,17.41666668653488,14.666666ZM17.875000686534882,7.333333C17.875000686534882,7.333333,18.789925686534882,7.3905149,18.789925686534882,7.3905149C18.789925686534882,7.3905149,18.85079268653488,6.4166665,18.85079268653488,6.4166665C18.85079268653488,6.4166665,17.875000686534882,6.4166665,17.875000686534882,6.4166665C17.875000686534882,6.4166665,17.875000686534882,7.333333,17.875000686534882,7.333333C17.875000686534882,7.333333,17.875000686534882,7.333333,17.875000686534882,7.333333ZM0.9166666865348816,4.5833333C0.9166666865348816,4.5833333,4.583333386534882,4.5833333,4.583333386534882,4.5833333C4.583333386534882,4.5833333,4.583333386534882,2.75,4.583333386534882,2.75C4.583333386534882,2.75,0.9166666865348816,2.75,0.9166666865348816,2.75C0.9166666865348816,2.75,0.9166666865348816,4.5833333,0.9166666865348816,4.5833333C0.9166666865348816,4.5833333,0.9166666865348816,4.5833333,0.9166666865348816,4.5833333ZM5.500000186534882,15.583333C5.500000186534882,15.583333,17.41666668653488,15.583333,17.41666668653488,15.583333C17.41666668653488,15.583333,17.41666668653488,13.75,17.41666668653488,13.75C17.41666668653488,13.75,5.500000186534882,13.75,5.500000186534882,13.75C5.500000186534882,13.75,5.500000186534882,15.583333,5.500000186534882,15.583333C5.500000186534882,15.583333,5.500000186534882,15.583333,5.500000186534882,15.583333ZM18.33159368653488,14.723866C18.33159368653488,14.723866,18.789925686534882,7.3905149,18.789925686534882,7.3905149C18.789925686534882,7.3905149,16.960075686534882,7.2761517,16.960075686534882,7.2761517C16.960075686534882,7.2761517,16.50174168653488,14.609467,16.50174168653488,14.609467C16.50174168653488,14.609467,18.33159368653488,14.723866,18.33159368653488,14.723866C18.33159368653488,14.723866,18.33159368653488,14.723866,18.33159368653488,14.723866ZM3.6698290865348815,3.74279165C3.6698290865348815,3.74279165,3.9753910865348816,7.409462,3.9753910865348816,7.409462C3.9753910865348816,7.409462,5.802390286534882,7.2572041,5.802390286534882,7.2572041C5.802390286534882,7.2572041,5.496837786534882,3.5905416,5.496837786534882,3.5905416C5.496837786534882,3.5905416,3.6698290865348815,3.74279165,3.6698290865348815,3.74279165C3.6698290865348815,3.74279165,3.6698290865348815,3.74279165,3.6698290865348815,3.74279165ZM3.9753910865348816,7.409462C3.9753910865348816,7.409462,4.586495786534881,14.742749,4.586495786534881,14.742749C4.586495786534881,14.742749,6.413504286534882,14.590583,6.413504286534882,14.590583C6.413504286534882,14.590583,5.802390286534882,7.2572041,5.802390286534882,7.2572041C5.802390286534882,7.2572041,3.9753910865348816,7.409462,3.9753910865348816,7.409462C3.9753910865348816,7.409462,3.9753910865348816,7.409462,3.9753910865348816,7.409462ZM17.875000686534882,6.4166665C17.875000686534882,6.4166665,4.888886186534881,6.4166665,4.888886186534881,6.4166665C4.888886186534881,6.4166665,4.888886186534881,8.25,4.888886186534881,8.25C4.888886186534881,8.25,17.875000686534882,8.25,17.875000686534882,8.25C17.875000686534882,8.25,17.875000686534882,6.4166665,17.875000686534882,6.4166665C17.875000686534882,6.4166665,17.875000686534882,6.4166665,17.875000686534882,6.4166665ZM5.041666686534882,19.795876C5.041666686534882,19.795876,8.250000186534882,19.795876,8.250000186534882,19.795876C8.250000186534882,19.795876,8.250000186534882,17.962542,8.250000186534882,17.962542C8.250000186534882,17.962542,5.041666686534882,17.962542,5.041666686534882,17.962542C5.041666686534882,17.962542,5.041666686534882,19.795876,5.041666686534882,19.795876C5.041666686534882,19.795876,5.041666686534882,19.795876,5.041666686534882,19.795876ZM15.125000686534882,19.795876C15.125000686534882,19.795876,18.333334686534883,19.795876,18.333334686534883,19.795876C18.333334686534883,19.795876,18.333334686534883,17.962542,18.333334686534883,17.962542C18.333334686534883,17.962542,15.125000686534882,17.962542,15.125000686534882,17.962542C15.125000686534882,17.962542,15.125000686534882,19.795876,15.125000686534882,19.795876C15.125000686534882,19.795876,15.125000686534882,19.795876,15.125000686534882,19.795876Z" fill="#E8CDA7" fill-opacity="1"/></g></g><g clip-path="url(#master_svg1_0_1306)"><g><path d="M50.50000074613953,10.0833335C50.50000074613953,13.120892,48.037558746139524,15.583334,45.00000024613953,15.583334C45.00000024613953,15.583334,45.00000024613953,17.416667,45.00000024613953,17.416667C49.05010874613953,17.416667,52.33333374613953,14.133442,52.33333374613953,10.0833335C52.33333374613953,10.0833335,50.50000074613953,10.0833335,50.50000074613953,10.0833335C50.50000074613953,10.0833335,50.50000074613953,10.0833335,50.50000074613953,10.0833335ZM45.00000024613953,15.583334C41.962432646139526,15.583334,39.50000014613953,13.120892,39.50000014613953,10.0833335C39.50000014613953,10.0833335,37.666666746139526,10.0833335,37.666666746139526,10.0833335C37.666666746139526,14.133442,40.94991014613953,17.416667,45.00000024613953,17.416667C45.00000024613953,17.416667,45.00000024613953,15.583334,45.00000024613953,15.583334C45.00000024613953,15.583334,45.00000024613953,15.583334,45.00000024613953,15.583334ZM39.50000014613953,10.0833335C39.50000014613953,7.0457659,41.962432646139526,4.5833334,45.00000024613953,4.5833334C45.00000024613953,4.5833334,45.00000024613953,2.75,45.00000024613953,2.75C40.94991014613953,2.75,37.666666746139526,6.0332434,37.666666746139526,10.0833335C37.666666746139526,10.0833335,39.50000014613953,10.0833335,39.50000014613953,10.0833335C39.50000014613953,10.0833335,39.50000014613953,10.0833335,39.50000014613953,10.0833335ZM45.00000024613953,4.5833334C48.037558746139524,4.5833334,50.50000074613953,7.0457659,50.50000074613953,10.0833335C50.50000074613953,10.0833335,52.33333374613953,10.0833335,52.33333374613953,10.0833335C52.33333374613953,6.0332434,49.05010874613953,2.75,45.00000024613953,2.75C45.00000024613953,2.75,45.00000024613953,4.5833334,45.00000024613953,4.5833334C45.00000024613953,4.5833334,45.00000024613953,4.5833334,45.00000024613953,4.5833334ZM50.31015874613953,16.689842C50.31015874613953,16.689842,53.06015874613953,19.439842,53.06015874613953,19.439842C53.06015874613953,19.439842,54.356508746139525,18.143492000000002,54.356508746139525,18.143492000000002C54.356508746139525,18.143492000000002,51.606508746139525,15.393492,51.606508746139525,15.393492C51.606508746139525,15.393492,50.31015874613953,16.689842,50.31015874613953,16.689842C50.31015874613953,16.689842,50.31015874613953,16.689842,50.31015874613953,16.689842Z" fill="#E8CDA7" fill-opacity="1"/></g></g><g clip-path="url(#master_svg2_0_1308)"><g><path d="M77.16667914613953,19.708334C77.16667914613953,19.708334,80.83335474613952,19.708334,80.83335474613952,19.708334C80.83335474613952,19.708334,80.83335474613952,17.875,80.83335474613952,17.875C80.83335474613952,17.875,77.16667914613953,17.875,77.16667914613953,17.875C77.16667914613953,17.875,77.16667914613953,19.708334,77.16667914613953,19.708334C77.16667914613953,19.708334,77.16667914613953,19.708334,77.16667914613953,19.708334ZM71.66666674613953,17.416667C71.66666674613953,17.416667,73.95833874613953,17.416667,73.95833874613953,17.416667C73.95833874613953,17.416667,73.95833874613953,15.583334,73.95833874613953,15.583334C73.95833874613953,15.583334,71.66666674613953,15.583334,71.66666674613953,15.583334C71.66666674613953,15.583334,71.66666674613953,17.416667,71.66666674613953,17.416667C71.66666674613953,17.416667,71.66666674613953,17.416667,71.66666674613953,17.416667ZM74.87500734613953,16.5C74.87500734613953,16.5,74.87500734613953,8.7083335,74.87500734613953,8.7083335C74.87500734613953,8.7083335,73.04166984613953,8.7083335,73.04166984613953,8.7083335C73.04166984613953,8.7083335,73.04166984613953,16.5,73.04166984613953,16.5C73.04166984613953,16.5,74.87500734613953,16.5,74.87500734613953,16.5C74.87500734613953,16.5,74.87500734613953,16.5,74.87500734613953,16.5ZM73.95833874613953,17.416667C73.95833874613953,17.416667,84.04169574613952,17.416667,84.04169574613952,17.416667C84.04169574613952,17.416667,84.04169574613952,15.583334,84.04169574613952,15.583334C84.04169574613952,15.583334,73.95833874613953,15.583334,73.95833874613953,15.583334C73.95833874613953,15.583334,73.95833874613953,17.416667,73.95833874613953,17.416667C73.95833874613953,17.416667,73.95833874613953,17.416667,73.95833874613953,17.416667ZM84.04169574613952,17.416667C84.04169574613952,17.416667,86.33336674613953,17.416667,86.33336674613953,17.416667C86.33336674613953,17.416667,86.33336674613953,15.583334,86.33336674613953,15.583334C86.33336674613953,15.583334,84.04169574613952,15.583334,84.04169574613952,15.583334C84.04169574613952,15.583334,84.04169574613952,17.416667,84.04169574613952,17.416667C84.04169574613952,17.416667,84.04169574613952,17.416667,84.04169574613952,17.416667ZM83.12502674613953,8.7083335C83.12502674613953,8.7083335,83.12502674613953,16.5,83.12502674613953,16.5C83.12502674613953,16.5,84.95836474613952,16.5,84.95836474613952,16.5C84.95836474613952,16.5,84.95836474613952,8.7083335,84.95836474613952,8.7083335C84.95836474613952,8.7083335,83.12502674613953,8.7083335,83.12502674613953,8.7083335C83.12502674613953,8.7083335,83.12502674613953,8.7083335,83.12502674613953,8.7083335ZM79.00001694613952,4.5833334C81.27821424613953,4.5833334,83.12502674613953,6.43016,83.12502674613953,8.7083335C83.12502674613953,8.7083335,84.95836474613952,8.7083335,84.95836474613952,8.7083335C84.95836474613952,5.4176376,82.29076674613952,2.75,79.00001694613952,2.75C79.00001694613952,2.75,79.00001694613952,4.5833334,79.00001694613952,4.5833334C79.00001694613952,4.5833334,79.00001694613952,4.5833334,79.00001694613952,4.5833334ZM74.87500734613953,8.7083335C74.87500734613953,6.43016,76.72183824613953,4.5833334,79.00001694613952,4.5833334C79.00001694613952,4.5833334,79.00001694613952,2.75,79.00001694613952,2.75C75.70931364613952,2.75,73.04166984613953,5.4176376,73.04166984613953,8.7083335C73.04166984613953,8.7083335,74.87500734613953,8.7083335,74.87500734613953,8.7083335C74.87500734613953,8.7083335,74.87500734613953,8.7083335,74.87500734613953,8.7083335Z" fill="#E8CDA7" fill-opacity="1"/></g></g></g></svg>