<svg xmlns="http://www.w3.org/2000/svg" xmlns:xlink="http://www.w3.org/1999/xlink" fill="none" version="1.1" width="20" height="20" viewBox="0 0 20 20"><defs><clipPath id="master_svg0_0_388"><rect x="0" y="0" width="20" height="20" rx="0"/></clipPath></defs><g clip-path="url(#master_svg0_0_388)"><g><path d="M12.762660300186157,5.512820507720948C13.447243300186157,5.512820507720948,14.093243300186158,5.7850462077209475,14.577825300186158,6.2786393077209475C15.586825300186158,7.304708907720947,15.586825300186158,8.973947007720948,14.577825300186158,9.998525107720948C14.577825300186158,9.998525107720948,10.282262100186157,14.367529507720947,10.282262100186157,14.367529507720947C10.185953900186156,14.466279507720948,10.076303700186157,14.487196507720947,10.000737000186156,14.487196507720947C9.925170700186158,14.487196507720947,9.817004000186158,14.466279507720948,9.719204200186157,14.367529507720947C9.719204200186157,14.367529507720947,5.423681300186157,9.998525107720948,5.423681300186157,9.998525107720948C4.414623400186157,8.972447407720948,4.414623400186157,7.303217207720947,5.423681300186157,6.2786393077209475C5.909689200186158,5.7850462077209475,6.554238800186157,5.512820507720948,7.238796900186157,5.512820507720948C7.923354900186157,5.512820507720948,8.569387700186157,5.7850462077209475,9.053912400186157,6.2786393077209475C9.053912400186157,6.2786393077209475,10.000737000186156,7.240392207720947,10.000737000186156,7.240392207720947C10.000737000186156,7.240392207720947,10.947562000186156,6.2786393077209475,10.947562000186156,6.2786393077209475C11.432086200186157,5.7850462077209475,12.078077600186157,5.512820507720948,12.762660300186157,5.512820507720948C12.762660300186157,5.512820507720948,12.762660300186157,5.512820507720948,12.762660300186157,5.512820507720948ZM12.762660300186157,4.166666507720947C11.762494300186157,4.166666507720947,10.763828500186158,4.554060967720948,10.000737000186156,5.3303449077209475C9.237645900186157,4.554060967720948,8.238963400186158,4.166666507720947,7.238796900186157,4.166666507720947C6.238630800186157,4.166666507720947,5.239948000186157,4.554060967720948,4.476856700186158,5.3303449077209475C2.952157500186157,6.8814161077209475,2.952157500186157,9.395740007720947,4.476856700186158,10.948311307720946C4.476856700186158,10.948311307720946,8.772387700186158,15.317366507720948,8.772387700186158,15.317366507720948C9.111696000186157,15.661366507720947,9.556220800186157,15.833366507720948,10.000737000186156,15.833366507720948C10.445254100186158,15.833366507720948,10.889769800186158,15.661366507720947,11.227603200186158,15.315865507720947C11.227603200186158,15.315865507720947,15.523159300186157,10.946811707720947,15.523159300186157,10.946811707720947C17.047824300186157,9.395740007720947,17.047824300186157,6.8814161077209475,15.523159300186157,5.328853107720947C14.761493300186157,4.554060967720948,13.762827300186157,4.166666507720947,12.762660300186157,4.166666507720947C12.762660300186157,4.166666507720947,12.762660300186157,4.166666507720947,12.762660300186157,4.166666507720947C12.762660300186157,4.166666507720947,12.762660300186157,4.166666507720947,12.762660300186157,4.166666507720947Z" fill="#818387" fill-opacity="1"/></g></g></svg>