<svg xmlns="http://www.w3.org/2000/svg" xmlns:xlink="http://www.w3.org/1999/xlink" fill="none" version="1.1" width="22" height="22" viewBox="0 0 22 22"><defs><clipPath id="master_svg0_0_90"><rect x="0" y="0" width="22" height="22" rx="0"/></clipPath></defs><g clip-path="url(#master_svg0_0_90)"><g><path d="M11,2.7197489738464355C6.4446251,2.7197489738464355,2.75,3.6451213338464354,2.75,4.7863678738464355C2.75,4.7863678738464355,2.75,18.536327973846436,2.75,18.559702973846434C2.75,19.699574973846435,6.4446251,20.624947973846435,11,20.624947973846435C14.760625,20.624947973846435,17.928626,19.993823973846435,18.921375,19.131699973846434C19.113874,19.009325973846437,19.25,18.804451973846437,19.25,18.558326973846434C19.25,18.558326973846434,19.25,4.784992973846435,19.25,4.784992973846435C19.25,3.6437463138464357,15.555375,2.7197489738464355,11,2.7197489738464355C11,2.7197489738464355,11,2.7197489738464355,11,2.7197489738464355ZM11,4.096119973846435C13.776125,4.096119973846435,15.80975,4.437118973846435,16.971625,4.784992973846435C15.80975,5.131491873846436,13.776125,5.4738659738464355,11,5.4738659738464355C8.223875,5.4738659738464355,6.1902501999999995,5.131491873846436,5.0283751,4.784992973846435C6.1902501999999995,4.438493973846436,8.223875,4.096119973846435,11,4.096119973846435C11,4.096119973846435,11,4.096119973846435,11,4.096119973846435ZM17.875,17.869455973846435C17.674250999999998,18.386452973846435,16.971625,18.558326973846434,16.971625,18.558326973846434C15.80975,18.904826973846436,13.776125,19.247200973846436,11,19.247200973846436C8.223875,19.247200973846436,6.1902501999999995,18.904826973846436,5.0283751,18.558326973846434C4.125,18.270953973846435,4.125,17.869455973846435,4.125,17.869455973846435C4.125,17.869455973846435,4.125,5.927614673846436,4.125,5.927614673846436C5.6017501,6.483113273846436,8.1290002,6.851612073846436,11,6.851612073846436C13.871,6.851612073846436,16.398251000000002,6.483113273846436,17.875,5.927614673846436C17.875,5.927614673846436,17.875,17.869455973846435,17.875,17.869455973846435C17.875,17.869455973846435,17.875,17.869455973846435,17.875,17.869455973846435Z" fill="#FFFFFF" fill-opacity="1"/></g></g></svg>