<svg xmlns="http://www.w3.org/2000/svg" xmlns:xlink="http://www.w3.org/1999/xlink" fill="none" version="1.1" width="22" height="22" viewBox="0 0 22 22"><defs><clipPath id="master_svg0_0_74"><rect x="0" y="0" width="22" height="22" rx="0"/></clipPath></defs><g clip-path="url(#master_svg0_0_74)"><g><path d="M14.347660990179444,13.683999061584473C14.347660990179444,13.683999061584473,8.092335050179443,13.683999061584473,8.092335050179443,13.683999061584473C7.689002220179443,13.683999061584473,7.359002590179443,14.014000741584473,7.359002590179443,14.417334081584473C7.359002590179443,14.820668361584472,7.689002220179443,15.150669061584473,8.092335050179443,15.150669061584473C8.092335050179443,15.150669061584473,14.347660990179444,15.150669061584473,14.347660990179444,15.150669061584473C14.750993690179444,15.150669061584473,15.081002690179442,14.820668361584472,15.081002690179442,14.417334081584473C15.081002690179442,14.014000741584473,14.750993690179444,13.683999061584473,14.347660990179444,13.683999061584473C14.347660990179444,13.683999061584473,14.347660990179444,13.683999061584473,14.347660990179444,13.683999061584473Z" fill="#FFFFFF" fill-opacity="1"/></g><g><path d="M17.020698805892945,4.070005639123535C16.527713805892944,3.574592239123535,15.941412805892945,3.181797979123535,15.295619805892944,2.9143214791235352C14.649918805892945,2.646845879123535,13.957649805892943,2.5099911726235353,13.258689605892945,2.5116662315925353C13.258689605892945,2.5116662315925353,6.057340905892945,2.5116662315925353,6.057340905892945,2.5116662315925353C4.843671325892944,2.5116662315925353,3.8573358058929443,3.498004619123535,3.8573358058929443,4.711673539123535C3.8573358058929443,4.711673539123535,3.8573358058929443,17.244347039123536,3.8573358058929443,17.244347039123536C3.8573358058929443,18.458014039123533,4.843671325892944,19.444350039123535,6.057340905892945,19.444350039123535C6.057340905892945,19.444350039123535,16.379029805892944,19.444350039123535,16.379029805892944,19.444350039123535C17.592699805892945,19.444350039123535,18.579034805892945,18.458014039123533,18.579034805892945,17.244347039123536C18.579034805892945,17.244347039123536,18.579034805892945,7.835679539123535,18.579034805892945,7.835679539123535C18.582701805892945,6.4093434391235355,18.029034805892945,5.0746743391235345,17.020698805892945,4.070005639123535C17.020698805892945,4.070005639123535,17.020698805892945,4.070005639123535,17.020698805892945,4.070005639123535C17.020698805892945,4.070005639123535,17.020698805892945,4.070005639123535,17.020698805892945,4.070005639123535ZM17.112365805892942,17.240680039123536C17.112365805892942,17.644012039123535,16.782364805892946,17.974014039123535,16.379029805892944,17.974014039123535C16.379029805892944,17.974014039123535,6.057340905892945,17.974014039123535,6.057340905892945,17.974014039123535C5.654006505892944,17.974014039123535,5.324005705892945,17.644012039123535,5.324005705892945,17.240680039123536C5.324005705892945,17.240680039123536,5.324005705892945,4.711673539123535,5.324005705892945,4.711673539123535C5.324005705892945,4.308339339123535,5.654006505892944,3.978338839123535,6.057340905892945,3.978338839123535C6.057340905892945,3.978338839123535,13.258689605892945,3.978338839123535,13.258689605892945,3.978338839123535C14.289025805892944,3.978338839123535,15.257027805892944,4.3780063391235355,15.983028805892944,5.107674339123536C16.709031805892945,5.837342539123535,17.112365805892942,6.805344139123535,17.112365805892942,7.835679539123535C17.112365805892942,7.835679539123535,17.112365805892942,17.240680039123536,17.112365805892942,17.240680039123536C17.112365805892942,17.240680039123536,17.112365805892942,17.240680039123536,17.112365805892942,17.240680039123536Z" fill="#FFFFFF" fill-opacity="1"/></g></g></svg>