<svg xmlns="http://www.w3.org/2000/svg" xmlns:xlink="http://www.w3.org/1999/xlink" fill="none" version="1.1" width="22" height="22" viewBox="0 0 22 22"><defs><clipPath id="master_svg0_0_85"><rect x="0" y="0" width="22" height="22" rx="0"/></clipPath></defs><g clip-path="url(#master_svg0_0_85)"><g><path d="M3.3752463730697633,19.25C2.510769843069763,19.25,1.8333333730697632,18.578816,1.8333333730697632,17.721825000000003C1.8333333730697632,17.721825000000003,1.8333333730697632,12.14785,1.8333333730697632,12.14785C1.8333333730697632,11.8075924,2.265957983069763,10.9442301,3.103812673069763,10.8168411C3.103812673069763,10.8168411,3.116728473069763,4.2781199999999995,3.116728473069763,4.2781199999999995C3.116728473069763,3.4498007299999998,3.821533873069763,2.75,4.655598073069763,2.75C4.655598073069763,2.75,17.34357837306976,2.75,17.34357837306976,2.75C18.192136373069765,2.75,18.883208373069763,3.43548888,18.883208373069763,4.2781199999999995C18.883208373069763,4.2781199999999995,18.883208373069763,10.8017702,18.883208373069763,10.8017702C19.671632373069762,10.9306355,20.166633373069764,11.7548294,20.166633373069764,12.14785C20.166633373069764,12.14785,20.166633373069764,17.721916999999998,20.166633373069764,17.721916999999998C20.166633373069764,18.456716999999998,19.576667373069764,19.25,18.624709373069763,19.25C18.624709373069763,19.25,3.3752463730697633,19.25,3.3752463730697633,19.25C3.3752463730697633,19.25,3.3752463730697633,19.25,3.3752463730697633,19.25C3.3752463730697633,19.25,3.3752463730697633,19.25,3.3752463730697633,19.25ZM3.494605273069763,17.684150000000002C3.494605273069763,17.684150000000002,18.451367373069765,17.699642,18.451367373069765,17.699642C18.451367373069765,17.699642,18.466584373069765,16.748417,18.466584373069765,16.748417C18.466584373069765,16.748417,18.466584373069765,12.3600588,18.466584373069765,12.3600588C18.466584373069765,12.3600588,15.047517373069763,12.3445663,15.047517373069763,12.3445663C15.047517373069763,12.3445663,15.032300373069763,13.295793,15.032300373069763,13.295793C15.032300373069763,14.037008,14.366985373069763,14.640359,13.548953373069763,14.640359C13.548953373069763,14.640359,8.423677773069763,14.640359,8.423677773069763,14.640359C7.605590673069763,14.640359,6.9403213730697635,14.037008,6.9403213730697635,13.295793C6.9403213730697635,13.295793,6.9403213730697635,12.3600588,6.9403213730697635,12.3600588C6.9403213730697635,12.3600588,3.496896973069763,12.3445663,3.496896973069763,12.3445663C3.496896973069763,12.3445663,3.494605273069763,17.684150000000002,3.494605273069763,17.684150000000002C3.494605273069763,17.684150000000002,3.494605273069763,17.684150000000002,3.494605273069763,17.684150000000002C3.494605273069763,17.684150000000002,3.494605273069763,17.684150000000002,3.494605273069763,17.684150000000002ZM4.789412873069763,10.7787809C4.789412873069763,10.7787809,6.1305945730697635,10.7912111,6.1305945730697635,10.7912111C6.470447873069763,10.7912111,6.817909573069763,10.7919626,7.098473873069763,10.7942276C8.144654173069764,10.8029079,8.632007973069763,11.7163754,8.632007973069763,12.3310003C8.632007973069763,12.3310003,8.632007973069763,13.083583,8.632007973069763,13.083583C8.632007973069763,13.083583,13.343619373069764,13.099075,13.343619373069764,13.099075C13.343619373069764,13.099075,13.358837373069763,12.3310003,13.358837373069763,12.3310003C13.358837373069763,11.7028265,13.916903373069763,10.7942276,14.924317373069764,10.7942276C14.924317373069764,10.7942276,17.185455373069765,10.7942276,17.185455373069765,10.7942276C17.185455373069765,10.7942276,17.19232937306976,4.2980943,17.19232937306976,4.2980943C17.19232937306976,4.2980943,4.8046387730697635,4.2826484,4.8046387730697635,4.2826484C4.8046387730697635,4.2826484,4.789412873069763,10.7787809,4.789412873069763,10.7787809C4.789412873069763,10.7787809,4.789412873069763,10.7787809,4.789412873069763,10.7787809C4.789412873069763,10.7787809,4.789412873069763,10.7787809,4.789412873069763,10.7787809Z" fill="#FFFFFF" fill-opacity="1"/></g></g></svg>