<svg xmlns="http://www.w3.org/2000/svg" xmlns:xlink="http://www.w3.org/1999/xlink" fill="none" version="1.1" width="66.66122436523438" height="11.3358154296875" viewBox="0 0 66.66122436523438 11.3358154296875"><g><g><g style="opacity:0.3499999940395355;"><path d="M42.33319091796875,2.6692235765625C42.33319091796875,1.1964734765625,43.52710091796875,0.0025634765625,44.99986101796875,0.0025634765625L61.66649091796875,0.0025634765625C63.13929191796875,0.0025634765625,64.33319091796875,1.1964734765625,64.33319091796875,2.6692335765625L64.33319091796875,8.6692332765625C64.33319091796875,10.1419634765625,63.13929191796875,11.3358634765625,61.66649091796875,11.3358634765625L44.99986101796875,11.3358634765625C43.52710091796875,11.3358634765625,42.33319091796875,10.1419634765625,42.33319091796875,8.6692332765625L42.33319091796875,2.6692235765625ZM43.33319091796875,2.6692235765625L43.33319073796875,8.6692332765625Q43.33319073796875,9.3595647765625,43.82134301796875,9.8477105765625Q44.30950191796875,10.3358634765625,44.99986101796875,10.3358634765625L61.66649291796875,10.3358634765625Q62.356877917968745,10.3358634765625,62.845040917968745,9.8477086765625Q63.33319091796875,9.3595666765625,63.33319091796875,8.6692332765625L63.33319091796875,2.6692335765625Q63.33319091796875,1.9788752765625,62.84503591796875,1.4907220765625Q62.35687491796875,1.0025634765625,61.66649091796875,1.0025634765625L44.99986071796875,1.0025638765625Q44.30950441796875,1.0025635765625,43.82134671796875,1.4907201765625Q43.33319091796875,1.9788745765625,43.33319091796875,2.6692235765625Z" fill-rule="evenodd" fill="#FFFFFF" fill-opacity="1"/></g><g style="opacity:0.4000000059604645;"><path d="M65.33319091796875,3.6692302227020264C65.33319091796875,3.6692302227020264,65.33319091796875,7.669230222702026,65.33319091796875,7.669230222702026C66.13792192796875,7.330450322702026,66.66123091796875,6.542360322702026,66.66123091796875,5.669230222702026C66.66123091796875,4.796100222702027,66.13792192796875,4.008007232702027,65.33319091796875,3.6692302227020264Z" fill="#FFFFFF" fill-opacity="1"/></g><g><path d="M44.33319091796875,3.1025633573532105C44.33319091796875,2.4950503673532105,44.82567792796875,2.0025633573532104,45.43319091796875,2.0025633573532104C45.43319091796875,2.0025633573532104,61.23319091796875,2.0025633573532104,61.23319091796875,2.0025633573532104C61.84069091796875,2.0025633573532104,62.33319091796875,2.4950503673532105,62.33319091796875,3.1025633573532105C62.33319091796875,3.1025633573532105,62.33319091796875,8.23589315735321,62.33319091796875,8.23589315735321C62.33319091796875,8.84341325735321,61.84069091796875,9.33589355735321,61.23319091796875,9.33589355735321C61.23319091796875,9.33589355735321,45.43319091796875,9.33589355735321,45.43319091796875,9.33589355735321C44.82567891796875,9.33589355735321,44.33319091796875,8.84341325735321,44.33319091796875,8.23589315735321C44.33319091796875,8.23589315735321,44.33319091796875,3.1025633573532105,44.33319091796875,3.1025633573532105C44.33319091796875,3.1025633573532105,44.33319091796875,3.1025633573532105,44.33319091796875,3.1025633573532105Z" fill="#FFFFFF" fill-opacity="1"/></g></g><g><path d="M29.663679091796876,2.277330000000063C31.879569091796874,2.277419900000063,34.010769091796874,3.128859900000063,35.61666909179688,4.655660000000063C35.73756909179687,4.773539900000063,35.93086909179688,4.7720498000000635,36.049969091796875,4.6523298000000635C36.049969091796875,4.6523298000000635,37.205969091796874,3.4856600000000633,37.205969091796874,3.4856600000000633C37.26626909179687,3.424940000000063,37.299969091796875,3.342690100000063,37.29946909179687,3.257110000000063C37.29896909179688,3.171529900000063,37.26436909179687,3.0896701000000633,37.20336909179687,3.029660100000063C32.98826909179687,-1.009889999999937,26.338438991796874,-1.009889999999937,22.123341589796876,3.029660100000063C22.062282990796874,3.089630000000063,22.027639091766876,3.1714600000000632,22.027076062568575,3.257039900000063C22.026513033776876,3.342620000000063,22.060077290796876,3.424889900000063,22.120341591796876,3.4856600000000633C22.120341591796876,3.4856600000000633,23.276678991796874,4.6523298000000635,23.276678991796874,4.6523298000000635C23.395699191796876,4.7722300000000635,23.589149091796877,4.773720100000063,23.710009091796874,4.655660000000063C25.316158991796875,3.1287600000000633,27.447568891796877,2.277320000000063,29.663679091796876,2.277330000000063C29.663679091796876,2.277330000000063,29.663679091796876,2.277330000000063,29.663679091796876,2.277330000000063ZM29.663679091796876,6.072989800000063C30.881169291796873,6.0729202000000635,32.05516909179688,6.5254501000000635,32.95766909179687,7.342659800000063C33.07976909179688,7.458640000000063,33.271969091796876,7.456129900000064,33.390969091796876,7.3369898000000635C33.390969091796876,7.3369898000000635,34.545669091796874,6.1703299000000635,34.545669091796874,6.1703299000000635C34.606469091796875,6.109129800000063,34.640269091796874,6.026120100000063,34.63936909179687,5.9398502000000635C34.63846909179688,5.853589900000063,34.603069091796876,5.771270200000063,34.540969091796875,5.711329800000063C31.792809491796874,3.1549400000000634,27.536869091796873,3.1549400000000634,24.788679091796876,5.711329800000063C24.726598991796877,5.771270200000063,24.691178991796875,5.853630000000063,24.690369091796875,5.939919800000063C24.689549191796875,6.0262102000000635,24.723409191796875,6.109219900000063,24.784339191796875,6.1703299000000635C24.784339191796875,6.1703299000000635,25.938678991796877,7.3369898000000635,25.938678991796877,7.3369898000000635C26.057659191796876,7.456129900000064,26.249948991796874,7.458640000000063,26.372009291796875,7.342659800000063C27.273879091796875,6.525989900000063,28.446989091796876,6.073500000000063,29.663679091796876,6.072989800000063C29.663679091796876,6.072989800000063,29.663679091796876,6.072989800000063,29.663679091796876,6.072989800000063ZM31.976669291796874,8.626810400000062C31.978439291796874,8.713320100000063,31.944429391796874,8.796719900000063,31.882678991796872,8.857329700000063C31.882678991796872,8.857329700000063,29.885339291796875,10.872999500000063,29.885339291796875,10.872999500000063C29.826788891796873,10.932199500000063,29.746969191796875,10.965600500000063,29.663679091796876,10.965600500000063C29.580388991796873,10.965600500000063,29.500559291796876,10.932199500000063,29.442008991796875,10.872999500000063C29.442008991796875,10.872999500000063,27.444339291796876,8.857329700000063,27.444339291796876,8.857329700000063C27.382628891796877,8.796679900000063,27.348679091796875,8.713249600000063,27.350509191796874,8.626739900000063C27.352339291796874,8.540230200000064,27.389789091796874,8.458309500000063,27.454009091796877,8.400330000000062C28.729578991796874,7.321440100000063,30.597768791796874,7.321440100000063,31.873338691796874,8.400330000000062C31.937519091796876,8.458360100000062,31.974899291796874,8.540310300000064,31.976669291796874,8.626810400000062C31.976669291796874,8.626810400000062,31.976669291796874,8.626810400000062,31.976669291796874,8.626810400000062Z" fill-rule="evenodd" fill="#FFFFFF" fill-opacity="1"/></g><g><path d="M16,0.3359375C16,0.3359375,15,0.3359375,15,0.3359375C14.4477,0.3359375,14,0.78365251,14,1.3359375C14,1.3359375,14,10.0026073,14,10.0026073C14,10.5549375,14.4477,11.0026375,15,11.0026375C15,11.0026375,16,11.0026375,16,11.0026375C16.552299,11.0026375,17,10.5549375,17,10.0026073C17,10.0026073,17,1.3359375,17,1.3359375C17,0.78365251,16.552299,0.3359375,16,0.3359375C16,0.3359375,16,0.3359375,16,0.3359375ZM10.3333,2.6692674C10.3333,2.6692674,11.3333,2.6692674,11.3333,2.6692674C11.8856,2.6692674,12.3333,3.1169875,12.3333,3.6692674C12.3333,3.6692674,12.3333,10.0026073,12.3333,10.0026073C12.3333,10.5549375,11.8856,11.0026375,11.3333,11.0026375C11.3333,11.0026375,10.3333,11.0026375,10.3333,11.0026375C9.7810497,11.0026375,9.3333302,10.5549375,9.3333302,10.0026073C9.3333302,10.0026073,9.3333302,3.6692674,9.3333302,3.6692674C9.3333302,3.1169875,9.7810497,2.6692674,10.3333,2.6692674C10.3333,2.6692674,10.3333,2.6692674,10.3333,2.6692674ZM6.6666698,5.0026073C6.6666698,5.0026073,5.6666698,5.0026073,5.6666698,5.0026073C5.1143799,5.0026073,4.6666698,5.4503174,4.6666698,6.0026073C4.6666698,6.0026073,4.6666698,10.0026073,4.6666698,10.0026073C4.6666698,10.5549375,5.1143799,11.0026375,5.6666698,11.0026375C5.6666698,11.0026375,6.6666698,11.0026375,6.6666698,11.0026375C7.2189498,11.0026375,7.6666698,10.5549375,7.6666698,10.0026073C7.6666698,10.0026073,7.6666698,6.0026073,7.6666698,6.0026073C7.6666698,5.4503174,7.2189498,5.0026073,6.6666698,5.0026073C6.6666698,5.0026073,6.6666698,5.0026073,6.6666698,5.0026073ZM2,7.0026073C2,7.0026073,1,7.0026073,1,7.0026073C0.44771501,7.0026073,0,7.4503174,0,8.002607300000001C0,8.002607300000001,0,10.0026073,0,10.0026073C0,10.5549375,0.44771501,11.0026375,1,11.0026375C1,11.0026375,2,11.0026375,2,11.0026375C2.5522799,11.0026375,3,10.5549375,3,10.0026073C3,10.0026073,3,8.002607300000001,3,8.002607300000001C3,7.4503174,2.5522799,7.0026073,2,7.0026073C2,7.0026073,2,7.0026073,2,7.0026073Z" fill-rule="evenodd" fill="#FFFFFF" fill-opacity="1"/></g></g></svg>