<svg xmlns="http://www.w3.org/2000/svg" xmlns:xlink="http://www.w3.org/1999/xlink" fill="none" version="1.1" width="24" height="24" viewBox="0 0 24 24"><defs><clipPath id="master_svg0_0_47"><rect x="0" y="0" width="24" height="24" rx="0"/></clipPath></defs><g clip-path="url(#master_svg0_0_47)"><g><path d="M17.486099,12.7474C17.052,13.8465,15.9905,14.6247,14.7517,14.6247C13.5128,14.6247,12.4513,13.8465,12.0172,12.7474C11.5778,13.8465,10.5057201,14.6247,9.2509899,14.6247C8.0121498,14.6247,6.9506698,13.8465,6.5165401,12.7474C6.0771298,13.8465,5.0050502,14.6247,3.75033,14.6247C3.4565001,14.6247,3.17062,14.5792,2.90061,14.499C2.90061,14.499,2.90061,20.7164,2.90061,20.7164C2.90061,21.294001,3.5279801,22,4.09445,22C4.09445,22,19.902901,22,19.902901,22C20.4667,22,21.096701,21.294001,21.096701,20.7164C21.096701,20.7164,21.096701,14.499,21.096701,14.499C20.8267,14.5792,20.543501,14.6247,20.247,14.6247C19.0002,14.6247,17.925501,13.8465,17.486099,12.7474C17.486099,12.7474,17.486099,12.7474,17.486099,12.7474ZM21.051701,4.7811201C21.051701,4.7811201,2.8873800000000003,4.7811201,2.8873800000000003,4.7811201C2.8873800000000003,4.7811201,1,9.8245802,1,9.8245802C1,11.3327999,2.2256,12.587,3.7344501,12.587C5.2432899,12.587,6.5006599,11.3648901,6.5006599,9.8245802C6.5006599,11.3327999,7.7262702,12.587,9.2351103,12.587C10.7439499,12.587,12.0013,11.3648901,12.0013,9.8245802C12.0013,11.3327999,13.2269,12.587,14.7358,12.587C16.2446,12.587,17.4676,11.3648901,17.4676,9.8245802C17.4676,11.3327999,18.693199,12.587,20.233801,12.587C21.742599,12.587,23,11.3648901,23,9.8245802C23,9.8245802,21.051701,4.7811201,21.051701,4.7811201C21.051701,4.7811201,21.051701,4.7811201,21.051701,4.7811201C21.051701,4.7811201,21.051701,4.7811201,21.051701,4.7811201ZM4.1447500999999995,3.92539C4.1447500999999995,3.92539,19.857901,3.92539,19.857901,3.92539C20.392599,3.92539,20.800301,3.5082199999999997,20.800301,2.962695C20.800301,2.41716799,20.392599,2,19.857901,2C19.857901,2,4.1447500999999995,2,4.1447500999999995,2C3.6100299,2,3.2023799,2.41716799,3.2023799,2.962695C3.2023799,3.50555,3.6100299,3.92539,4.1447500999999995,3.92539C4.1447500999999995,3.92539,4.1447500999999995,3.92539,4.1447500999999995,3.92539C4.1447500999999995,3.92539,4.1447500999999995,3.92539,4.1447500999999995,3.92539Z" fill="#FFFFFF" fill-opacity="1"/></g></g></svg>