<svg xmlns="http://www.w3.org/2000/svg" xmlns:xlink="http://www.w3.org/1999/xlink" fill="none" version="1.1" width="48" height="48" viewBox="0 0 48 48"><defs><clipPath id="master_svg0_0_315"><rect x="0" y="0" width="48" height="48" rx="0"/></clipPath></defs><g clip-path="url(#master_svg0_0_315)"><g><path d="M24,0C10.74502,0,0,10.74502,0,24C0,37.255001,10.74502,48,24,48C37.255001,48,48,37.255001,48,24C48,10.74502,37.255001,0,24,0C24,0,24,0,24,0Z" fill="#E8CDA7" fill-opacity="1"/></g><g transform="matrix(0,1,-1,0,49.379302978515625,-17.159507751464844)"><path d="M39.47120716499023,17.037681343525392C40.256847364990236,15.800637363525391,42.062167164990235,15.80063536352539,42.847806964990234,17.037681343525392C42.847806964990234,17.037681343525392,48.73466736499023,26.30708161352539,48.73466736499023,26.30708161352539C49.58030736499023,27.63862161352539,48.62372736499023,29.37930061352539,47.04636736499023,29.37930061352539C47.04636736499023,29.37930061352539,35.272647364990235,29.37930061352539,35.272647364990235,29.37930061352539C33.695287344990234,29.37930061352539,32.73870736499023,27.63862161352539,33.584347334990234,26.30708161352539C33.584347334990234,26.30708161352539,39.47120716499023,17.037681343525392,39.47120716499023,17.037681343525392C39.47120716499023,17.037681343525392,39.47120716499023,17.037681343525392,39.47120716499023,17.037681343525392Z" fill="#1A1D25" fill-opacity="1"/></g></g></svg>