<svg xmlns="http://www.w3.org/2000/svg" xmlns:xlink="http://www.w3.org/1999/xlink" fill="none" version="1.1" width="20" height="20" viewBox="0 0 20 20"><defs><clipPath id="master_svg0_0_223"><rect x="0" y="0" width="20" height="20" rx="0"/></clipPath></defs><g clip-path="url(#master_svg0_0_223)"><g><path d="M15.329137492279052,5.441336907720947C15.329137492279052,5.441336907720947,15.316803492279053,12.073231207720948,15.316803492279053,12.073231207720948C15.316803492279053,12.073231207720948,12.762726292279053,12.069047907720947,12.762726292279053,12.069047907720947C12.584559892279053,12.068747507720946,12.413560392279052,12.100973107720947,12.250394392279052,12.165931207720948C12.087144392279052,12.230907007720948,11.940978492279053,12.323849207720947,11.811644992279053,12.444465207720947C11.811644992279053,12.444465207720947,9.996875292279054,14.144945607720947,9.996875292279054,14.144945607720947C9.996875292279054,14.144945607720947,8.173537692279051,12.438507507720947,8.173537692279051,12.438507507720947C8.114263092279053,12.373174207720947,8.047421492279053,12.317215407720948,7.973521692279053,12.270631307720947C7.899363492279052,12.224073907720948,7.822738692279053,12.186873007720948,7.743697192279053,12.158556007720946C7.664372492279052,12.130506007720946,7.580456292279052,12.107014607720947,7.491389292279052,12.088598207720947C7.402615092279053,12.069914307720946,7.313265092279053,12.060381407720946,7.223873892279053,12.059989407720948C7.223873892279053,12.059989407720948,4.670038492279053,12.055798007720949,4.670038492279053,12.055798007720949C4.670038492279053,12.055798007720949,4.682321792279053,5.423903507720947,4.682321792279053,5.423903507720947C4.682321792279053,5.423903507720947,15.328553492279053,5.441320207720947,15.328553492279053,5.441320207720947C15.328553492279053,5.441320207720947,15.329137492279052,5.441336907720947,15.329137492279052,5.441336907720947C15.329137492279052,5.441336907720947,15.329137492279052,5.441336907720947,15.329137492279052,5.441336907720947ZM15.628136492279053,4.185062894720947C15.628136492279053,4.185062894720947,4.388197492279053,4.166668316490547,4.388197492279053,4.166668316490547C4.101214052279053,4.166194453860947,3.8559047022790525,4.258827604720947,3.6525151722790525,4.444697287720947C3.4491407022790526,4.6305811977209475,3.347186874279053,4.858394327720947,3.346698125279053,5.128235997720948C3.346698125279053,5.128235997720948,3.3333353670838526,12.346056507720947,3.3333353670838526,12.346056507720947C3.3328314010290527,12.615941507720947,3.4339307322790527,12.844275007720947,3.636616912279053,13.030692607720948C3.839303852279053,13.217110107720947,4.084278222279052,13.310693307720948,4.371280892279053,13.311193007720947C4.371280892279053,13.311193007720947,7.2221071922790525,13.315776307720947,7.2221071922790525,13.315776307720947C7.2221071922790525,13.315776307720947,9.801625692279053,15.763200507720947,9.801625692279053,15.763200507720947C9.850691792279052,15.809783507720947,9.915183592279053,15.833199507720947,9.994291292279053,15.833366507720948C10.014266992279053,15.833366507720948,10.033983192279052,15.828867507720947,10.053699492279053,15.819783507720947C10.053699492279053,15.819783507720947,10.172591692279052,15.763866507720948,10.172591692279052,15.763866507720948C10.172591692279052,15.763866507720948,12.760893392279053,13.324860107720948,12.760893392279053,13.324860107720948C12.760893392279053,13.324860107720948,15.611719492279052,13.329526407720948,15.611719492279052,13.329526407720948C15.898718492279052,13.330027107720948,16.144051492279054,13.237275607720948,16.347466492279054,13.051525607720947C16.550799492279054,12.865775607720947,16.652800492279052,12.637691007720948,16.653216492279054,12.367840307720947C16.653216492279054,12.367840307720947,16.666633492279054,5.150036037720947,16.666633492279054,5.150036037720947C16.667133492279053,4.880192757720947,16.566050492279054,4.652033747720948,16.363383492279052,4.465489867720947C16.160718492279052,4.278959337720948,15.915718492279053,4.185508062720947,15.628719492279053,4.185048561720947C15.628719492279053,4.185048561720947,15.628136492279053,4.185048561720947,15.628136492279053,4.185048561720947C15.628136492279053,4.185048561720947,15.628136492279053,4.185062894720947,15.628136492279053,4.185062894720947C15.628136492279053,4.185062894720947,15.628136492279053,4.185062894720947,15.628136492279053,4.185062894720947ZM6.027518492279053,8.727704507720947C6.027943392279052,8.499604207720946,6.114976392279052,8.304162007720947,6.288634292279053,8.141578007720948C6.4619838922790525,7.978885907720947,6.667858392279053,7.897727507720948,6.905457692279053,7.898119007720947C7.004282492279053,7.898285907720947,7.098490492279053,7.912519007720947,7.187532192279052,7.940594007720947C7.276306592279052,7.968777607720947,7.358039892279053,8.008511107720947,7.432456492279052,8.059802807720947C7.5066060922790525,8.111211307720946,7.571014392279053,8.171719507720947,7.625155892279053,8.241511807720947C7.679022292279052,8.311278307720947,7.720989192279053,8.388261807720948,7.751089092279052,8.472353907720947C7.780897092279052,8.556295907720948,7.7955722922790525,8.644929407720948,7.795146892279052,8.737830207720947C7.7945055922790525,9.082055607720946,7.625855892279053,9.328406307720947,7.288631692279052,9.476740407720946C7.169740692279053,9.532532207720948,7.040890692279053,9.560374307720947,6.902116092279053,9.560157307720948C6.664791792279052,9.559765807720947,6.4592005922790525,9.477932007720948,6.286467792279053,9.314798307720947C6.113409992279053,9.151539307720947,6.027093392279053,8.955805807720948,6.027518492279053,8.727704507720947C6.027518492279053,8.727704507720947,6.027518492279053,8.727704507720947,6.027518492279053,8.727704507720947ZM9.115910492279053,8.739996407720948C9.116210492279052,8.581829507720947,9.156168892279052,8.439870807720947,9.235776892279052,8.314328707720946C9.314835092279052,8.188795107720948,9.421676192279053,8.088828107720946,9.555459492279052,8.014661107720947C9.689242392279052,7.940360807720947,9.837791892279053,7.903410707720948,10.001408092279053,7.903685607720947C10.164757692279053,7.903944207720947,10.313199492279054,7.9413776077209475,10.446690592279053,8.016110907720947C10.580473892279052,8.090836307720947,10.686673192279052,8.191036207720948,10.765531492279052,8.316828207720947C10.844414692279052,8.442629307720948,10.883848192279054,8.584570907720948,10.883556392279052,8.742871307720947C10.883139092279052,8.966280507720947,10.796106292279052,9.159181107720947,10.622481392279052,9.321873207720948C10.448840092279053,9.484457007720948,10.240798992279053,9.565599007720948,9.998341992279052,9.565198907720948C9.755608992279052,9.564806907720946,9.547884492279053,9.482973607720947,9.374867892279052,9.319839907720947C9.201793692279054,9.156597607720947,9.115510492279054,8.963263507720947,9.115910492279053,8.739996407720948C9.115910492279053,8.739996407720948,9.115910492279053,8.739996407720948,9.115910492279053,8.739996407720948ZM12.234310592279053,8.737863507720947C12.234727392279053,8.509770907720947,12.321810292279054,8.314312007720947,12.495394192279052,8.151736507720948C12.669060192279053,7.9890444077209475,12.874642892279052,7.9078941077209475,13.112225992279052,7.908285807720947C13.280141392279052,7.908552407720947,13.431308492279053,7.946119107720947,13.564807492279053,8.020844507720948C13.698390492279053,8.095444707720947,13.804557492279052,8.195761707720948,13.883389492279052,8.321561807720947C13.962556492279052,8.447353807720948,14.001723492279053,8.589312507720948,14.001389492279053,8.747479907720948C14.000973492279053,8.970888607720948,13.913973492279053,9.163806007720947,13.740640492279052,9.326498007720947C13.566974492279053,9.489065207720948,13.358974492279053,9.570223807720946,13.116225692279052,9.569823707720946C12.873476492279053,9.569548607720947,12.665727092279052,9.487715207720948,12.492726792279052,9.324448107720947C12.319727392279052,9.161181007720948,12.233643992279053,8.965571907720946,12.234060792279053,8.737471607720948C12.234060792279053,8.737471607720948,12.234310592279053,8.737863507720947,12.234310592279053,8.737863507720947C12.234310592279053,8.737863507720947,12.234310592279053,8.737863507720947,12.234310592279053,8.737863507720947Z" fill="#818387" fill-opacity="1"/></g></g></svg>