<svg xmlns="http://www.w3.org/2000/svg" xmlns:xlink="http://www.w3.org/1999/xlink" fill="none" version="1.1" width="24" height="24" viewBox="0 0 24 24"><defs><clipPath id="master_svg0_0_65"><rect x="0" y="0" width="24" height="24" rx="0"/></clipPath></defs><g clip-path="url(#master_svg0_0_65)"><g><path d="M23.966400000265008,8.7129998C23.966400000265008,8.7129998,23.927999000265007,8.4165301,23.927999000265007,8.4165301C23.88260100026501,8.138569799999999,23.82010100026501,7.8635502,23.74080100026501,7.5929999C23.503000000265008,6.7237998999999995,23.06629900026501,5.9191401,22.464001000265007,5.2400701000000005C22.428499000265006,5.1937799,22.390100000265008,5.14977,22.34880100026501,5.1083099999999995C21.748400000265008,4.44161,21.009501000265008,3.90856302,20.181601000265008,3.54494202C19.353800000265007,3.181321,18.456200000265007,2.9955438101,17.549000000265007,3.000081153215C15.27870000026501,3.000081153215,13.14760000026501,3.87537199,11.995700000265009,5.1789000000000005C10.84370000026501,3.87537199,8.70781990026501,3.000081153215,6.44231990026501,3.000081153215C5.53519010026501,2.9955438101,4.63757990026501,3.181321,3.809720000265009,3.54494202C2.981869900265009,3.90856302,2.2429299002650094,4.44161,1.642520000265009,5.1083099999999995C1.6012900002650092,5.14977,1.5628200002650092,5.1937799,1.5273300002650092,5.2400701000000005C0.9250059702650091,5.9191401,0.4883779902650091,6.7237998999999995,0.25058401026500915,7.5929999C0.1712800002650091,7.8635502,0.10876900026500913,8.138569799999999,0.06339210326500913,8.4165301C0.06339210326500913,8.4165301,0.024993800265009126,8.7129998,0.024993800265009126,8.7129998C0.005017909965009126,8.919449799999999,-0.002994720134990874,9.126840099999999,0.0009947440450091256,9.3341699C0.0011347000650091257,9.543230099999999,0.012349400265009126,9.75214,0.03459340026500913,9.9600501C0.5145729802650091,15.6683,11.074100000265009,22.407101,11.52050000026501,22.694099C11.52050000026501,22.694099,12.00050000026501,23,12.00050000026501,23C12.00050000026501,23,12.480500000265009,22.694099,12.480500000265009,22.694099C12.931600000265009,22.4118,23.49119900026501,15.673,23.966400000265008,9.9600501C23.98860000026501,9.75214,23.999800000265008,9.543230099999999,24.000000000265008,9.3341699C24.00079900026501,9.1266599,23.989500000265007,8.919270000000001,23.966400000265008,8.7129998C23.966400000265008,8.7129998,23.966400000265008,8.7129998,23.966400000265008,8.7129998C23.966400000265008,8.7129998,23.966400000265008,8.7129998,23.966400000265008,8.7129998Z" fill="#FFFFFF" fill-opacity="1"/></g></g></svg>