<svg xmlns="http://www.w3.org/2000/svg" xmlns:xlink="http://www.w3.org/1999/xlink" fill="none" version="1.1" width="14" height="14" viewBox="0 0 14 14"><defs><clipPath id="master_svg0_0_1036"><rect x="0" y="0" width="14" height="14" rx="0"/></clipPath></defs><g clip-path="url(#master_svg0_0_1036)"><g><path d="M11.413380192279053,4.452681807720947C11.404689292279052,4.464622607720948,11.383922092279052,4.476563407720947,11.373013992279052,4.486334307720947C11.373013992279052,4.486334307720947,8.735648192279053,7.087247407720947,8.735648192279053,7.087247407720947C8.735648192279053,7.087247407720947,8.735648192279053,11.358780407720948,8.735648192279053,11.358780407720948C8.735648192279053,11.850530107720948,8.356890192279053,12.249996707720948,7.861289492279052,12.249996707720948C7.632051492279053,12.249996707720948,7.4377431922790525,12.163137907720948,7.270723392279053,12.006864107720947C7.258717992279053,11.999221307720948,7.246707392279053,11.989480507720947,7.236884092279053,11.979680507720948C7.236884092279053,11.979680507720948,6.503319692279053,11.258913507720948,6.503319692279053,11.258913507720948C6.412716392279052,11.169897507720947,6.411619692279053,11.025521707720948,6.501131992279053,10.934347607720948C6.501131992279053,10.934347607720948,6.813337792279053,10.621738907720946,6.813337792279053,10.621738907720946C6.901759592279053,10.535930607720946,7.043666792279053,10.534880607720947,7.133179192279052,10.620630707720947C7.133179192279052,10.620630707720947,7.803435292279053,11.311005107720947,7.803435292279053,11.311005107720947C7.813258692279053,11.319696907720948,7.817621692279053,11.328388707720947,7.829632292279053,11.339238607720947C7.823081992279053,9.505822707720947,7.8208999922790525,7.3228035077209475,7.8208999922790525,6.886423607720947C7.8208999922790525,6.886423607720947,7.8208999922790525,6.809353607720947,7.8208999922790525,6.809353607720947C7.8208999922790525,6.748564507720947,7.875482092279053,6.686690307720948,7.919144592279053,6.644351707720947C7.919144592279053,6.644351707720947,10.737705692279052,3.8654112177209474,10.737705692279052,3.8654112177209474C10.745347492279052,3.8556461977209473,10.754097492279053,3.828503727720947,10.762788292279053,3.828503727720947C10.762788292279053,3.828503727720947,3.2415657022790527,3.828503727720947,3.2415657022790527,3.828503727720947C3.2503039822790525,3.828503727720947,3.2492073822790526,3.8545612077209475,3.2557581622790526,3.8643261777209474C3.2557581622790526,3.8643261777209474,6.033923192279053,6.648697607720948,6.033923192279053,6.648697607720948C6.077585492279052,6.692115107720947,6.081954692279053,6.749649307720947,6.081954692279053,6.810438407720947C6.081954692279053,6.810438407720947,6.081954692279053,8.637373407720947,6.081954692279053,8.637373407720947C6.081954692279053,8.639543507720948,6.088505492279053,8.642804607720947,6.088505492279053,8.644974207720947C6.083045492279053,8.892447507720947,5.888737192279052,9.088973007720949,5.644215592279053,9.088973007720949C5.395324692279052,9.088973007720949,5.166086692279053,8.887023007720948,5.166086692279053,8.639543507720948C5.166086692279053,8.639543507720948,5.166086692279053,7.087247407720947,5.166086692279053,7.087247407720947C5.166086692279053,7.087247407720947,2.580048992279053,4.481988407720947,2.580048992279053,4.481988407720947C2.5702239122790527,4.472223507720948,2.586598662279053,4.455936907720947,2.5789569922790525,4.4450810077209475C2.4206724692790527,4.276830307720948,2.3322518700790527,4.055379507720947,2.3333434809701528,3.8252486577209472C2.3333434809701528,3.333507627720947,2.7350581022790528,2.9166665077209473,3.2284698522790527,2.9166665077209473C3.2284698522790527,2.9166665077209473,10.777022792279054,2.9166665077209473,10.777022792279054,2.9166665077209473C11.016071792279053,2.9166665077209473,11.240947292279053,3.0263045477209474,11.410113792279052,3.194560587720947C11.579338592279052,3.3628165977209474,11.666663692279053,3.5951179277209473,11.666663692279053,3.832849557720947C11.664505492279053,4.061895207720948,11.571696792279052,4.286595207720947,11.413380192279053,4.452681807720947C11.413380192279053,4.452681807720947,11.413380192279053,4.452681807720947,11.413380192279053,4.452681807720947C11.413380192279053,4.452681807720947,11.413380192279053,4.452681807720947,11.413380192279053,4.452681807720947ZM5.676963792279053,9.271322207720948C5.952052092279052,9.281064507720949,6.167097792279053,9.510139007720948,6.157274492279052,9.783664207720946C6.148542192279052,10.044239507720947,5.937859792279053,10.252605907720948,5.676963792279053,10.261297707720948C5.401875692279052,10.251555407720947,5.1868297922790525,10.022481007720948,5.196653092279053,9.748955707720947C5.205385892279052,9.489489507720947,5.414977592279053,9.280014007720947,5.676963792279053,9.271322207720948C5.676963792279053,9.271322207720948,5.676963792279053,9.271322207720948,5.676963792279053,9.271322207720948Z" fill="#FFFFFF" fill-opacity="1"/></g></g></svg>