<svg xmlns="http://www.w3.org/2000/svg" xmlns:xlink="http://www.w3.org/1999/xlink" fill="none" version="1.1" width="22" height="22" viewBox="0 0 22 22"><defs><clipPath id="master_svg0_0_95"><rect x="0" y="0" width="22" height="22" rx="0"/></clipPath></defs><g clip-path="url(#master_svg0_0_95)"><g><path d="M10.999983173069763,20.166633373069764C5.937416473069764,20.166633373069764,1.8333333730697632,16.062540373069766,1.8333333730697632,10.999983173069763C1.8333333730697632,5.937416473069764,5.937398273069763,1.8333333730697632,10.999983173069763,1.8333333730697632C16.062540373069766,1.8333333730697632,20.166633373069764,5.937416473069764,20.166633373069764,10.999983173069763C20.166633373069764,16.062540373069766,16.062540373069766,20.166633373069764,10.999983173069763,20.166633373069764C10.999983173069763,20.166633373069764,10.999983173069763,20.166633373069764,10.999983173069763,20.166633373069764C10.999983173069763,20.166633373069764,10.999983173069763,20.166633373069764,10.999983173069763,20.166633373069764ZM10.999983173069763,3.4999952730697634C6.857830373069763,3.4999952730697634,3.4999952730697634,6.857812273069763,3.4999952730697634,10.999983173069763C3.4999952730697634,15.142117373069762,6.857812273069763,18.499953373069765,10.999983173069763,18.499953373069765C15.142117373069762,18.499953373069765,18.499953373069765,15.142117373069762,18.499953373069765,10.999983173069763C18.499953373069765,6.857812273069763,15.142117373069762,3.4999952730697634,10.999983173069763,3.4999952730697634C10.999983173069763,3.4999952730697634,10.999983173069763,3.4999952730697634,10.999983173069763,3.4999952730697634C10.999983173069763,3.4999952730697634,10.999983173069763,3.4999952730697634,10.999983173069763,3.4999952730697634ZM11.833322873069763,12.548779373069763C11.833322873069763,12.548779373069763,11.833322873069763,13.500003373069763,11.833322873069763,13.500003373069763C11.833322873069763,13.500003373069763,10.166652073069763,13.500003373069763,10.166652073069763,13.500003373069763C10.166652073069763,13.500003373069763,10.166652073069763,11.833322873069763,10.166652073069763,11.833322873069763C10.166652073069763,11.373065373069764,10.539743773069763,10.999983173069763,10.999983173069763,10.999983173069763C11.920498373069764,10.999983173069763,12.666663373069763,10.253817873069764,12.666663373069763,9.333320973069764C12.666663373069763,8.412824473069763,11.920498373069764,7.666659273069763,10.999983173069763,7.666659273069763C10.079486273069763,7.666659273069763,9.333320973069764,8.412824473069763,9.333320973069764,9.333320973069764C9.333320973069764,9.638478673069763,9.421330373069763,9.920655573069762,9.564485473069762,10.166652073069763C9.564485473069762,10.166652073069763,7.784496173069763,10.166652073069763,7.784496173069763,10.166652073069763C7.715169273069763,9.898820273069763,7.666659273069763,9.622813073069764,7.666659273069763,9.333320973069764C7.666659273069763,7.492410573069763,9.158989773069763,6.000006573069763,10.999983173069763,6.000006573069763C12.840920373069762,6.000006573069763,14.333343373069763,7.492410573069763,14.333343373069763,9.333320973069764C14.333343373069763,10.884730673069763,13.268454373069764,12.176981373069763,11.833322873069763,12.548779373069763C11.833322873069763,12.548779373069763,11.833322873069763,12.548779373069763,11.833322873069763,12.548779373069763C11.833322873069763,12.548779373069763,11.833322873069763,12.548779373069763,11.833322873069763,12.548779373069763ZM11.833322873069763,15.999931373069764C11.833322873069763,15.999931373069764,10.166652073069763,15.999931373069764,10.166652073069763,15.999931373069764C10.166652073069763,15.999931373069764,10.166652073069763,14.333343373069763,10.166652073069763,14.333343373069763C10.166652073069763,14.333343373069763,11.833322873069763,14.333343373069763,11.833322873069763,14.333343373069763C11.833322873069763,14.333343373069763,11.833322873069763,15.999931373069764,11.833322873069763,15.999931373069764C11.833322873069763,15.999931373069764,11.833322873069763,15.999931373069764,11.833322873069763,15.999931373069764Z" fill="#FFFFFF" fill-opacity="1"/></g></g></svg>