<svg xmlns="http://www.w3.org/2000/svg" xmlns:xlink="http://www.w3.org/1999/xlink" fill="none" version="1.1" width="23.9990234375" height="24" viewBox="0 0 23.9990234375 24"><g><g><path d="M11.72133158046875,1C11.72133158046875,1,17.867061980468748,1,17.867061980468748,1C17.867061980468748,1,17.867061980468748,7.1457701,17.867061980468748,7.1457701C17.867061980468748,8.36128,17.50666098046875,9.5495005,16.83136198046875,10.5601702C16.15606098046875,11.5708,15.19620098046875,12.3586,14.07321198046875,12.8237C12.95022198046875,13.2889,11.71451188046875,13.4106,10.52235128046875,13.1734C9.33019158046875,12.9363,8.235121680468751,12.351,7.37562128046875,11.4915C6.51611658046875,10.6319799,5.93078948046875,9.5369101,5.69365358046875,8.3447399C5.45651748046875,7.1525798,5.57822468046875,5.9168701,6.04338358046875,4.79388C6.50854158046875,3.6708901,7.29626178046875,2.71105,8.30692148046875,2.03575C9.31759168046875,1.360443,10.50581168046875,1.0000000000000004,11.72133158046875,1C11.72133158046875,1,11.72133158046875,1,11.72133158046875,1ZM6.19000478046875,14.521607C6.19000478046875,14.521607,17.252654980468748,14.521607,17.252654980468748,14.521607C18.39265398046875,14.521607,19.48605498046875,14.974498,20.29225498046875,15.780646C21.09835398046875,16.586797,21.55125398046875,17.680166,21.55125398046875,18.820227C21.55125398046875,18.820227,21.55125398046875,19.434677,21.55125398046875,19.434677C21.55125398046875,20.412457,21.16285498046875,21.350176,20.47145498046875,22.041567C19.78005398046875,22.732967,18.84235598046875,23.121376,17.86455498046875,23.121376C17.86455498046875,23.121376,5.5755550804687495,23.121376,5.5755550804687495,23.121376C4.5977849804687505,23.121376,3.66005488046875,22.732967,2.96866498046875,22.041567C2.27727398046875,21.350176,1.8888549804688146,20.412457,1.8888549804688144,19.434677C1.8888549804688144,19.434677,1.8888549804688144,18.820227,1.8888549804688144,18.820227C1.888854882767049,18.255516,2.00012598046875,17.696337,2.21630999046875,17.174637C2.4324939804687498,16.652937,2.74935400046875,16.178946,3.1487849804687498,15.779746C3.54821508046875,15.380552,4.022394880468751,15.063972,4.54421498046875,14.848096C5.06604508046875,14.632217,5.62528488046875,14.521275,6.19000478046875,14.521607C6.19000478046875,14.521607,6.19000478046875,14.521607,6.19000478046875,14.521607Z" fill="#494C52" fill-opacity="1"/></g></g></svg>