<svg xmlns="http://www.w3.org/2000/svg" xmlns:xlink="http://www.w3.org/1999/xlink" fill="none" version="1.1" width="23.999008178710938" height="24" viewBox="0 0 23.999008178710938 24"><g><g><path d="M23.999001,12.0005C23.999001,5.3722801,18.626699,0,11.9995,0C5.3722801,0,0,5.3722801,0,12.0005C0,18.627701,5.3722801,24,11.9995,24C18.626699,24,23.999001,18.627701,23.999001,12.0005ZM6.3386798,12.0005C6.3386798,8.8786097,8.8776197,6.34061,11.9995,6.34061C15.1214,6.34061,17.658501,8.8786097,17.6584,12.0005C17.6584,15.1194,15.1214,17.6604,11.9995,17.6604C8.8776398,17.6604,6.3386798,15.1195,6.3386798,12.0005ZM8.0274506,12.000492C8.0274506,9.8072224,9.8052902,8.0284424,11.99952,8.0284424C14.191791,8.0284424,15.971601,9.8072023,15.971601,12.000492C15.971601,14.193772,14.191771,15.972603,11.99952,15.972603C9.8052902,15.972603,8.0274506,14.193752,8.0274506,12.000492ZM10.599311,12.000492C10.599311,12.773203,11.226801,13.400723,11.99952,13.400723C12.772251,13.400723,13.3997,12.773222,13.3997,12.000492C13.3997,11.226832,12.77223,10.600323,11.99952,10.600323C11.226801,10.600323,10.599311,11.226832,10.599311,12.000492Z" fill-rule="evenodd" fill="#FFFFFF" fill-opacity="1"/></g></g></svg>