<svg xmlns="http://www.w3.org/2000/svg" xmlns:xlink="http://www.w3.org/1999/xlink" fill="none" version="1.1" width="23.9990234375" height="24" viewBox="0 0 23.9990234375 24"><g><g><path d="M23.999001,12.0005C23.999001,5.3722801,18.626699,0,11.9995,0C5.3722801,0,0,5.3722801,0,12.0005C0,18.627701,5.3722801,24,11.9995,24C18.626699,24,23.999001,18.627701,23.999001,12.0005ZM6.3386798,12.0005C6.3386798,8.8786097,8.8776197,6.34061,11.9995,6.34061C15.1214,6.34061,17.658501,8.8786097,17.6584,12.0005C17.6584,15.1194,15.1214,17.6604,11.9995,17.6604C8.8776398,17.6604,6.3386798,15.1195,6.3386798,12.0005ZM8.0274353,12.000492C8.0274353,9.8072224,9.805275,8.0284424,11.999505,8.0284424C14.191775,8.0284424,15.971585,9.8072023,15.971585,12.000492C15.971585,14.193772,14.191755,15.972603,11.999505,15.972603C9.805275,15.972603,8.0274353,14.193752,8.0274353,12.000492ZM10.599296,12.000492C10.599296,12.773203,11.226786,13.400723,11.999505,13.400723C12.772236,13.400723,13.399685,12.773222,13.399685,12.000492C13.399685,11.226832,12.772215,10.600323,11.999505,10.600323C11.226786,10.600323,10.599296,11.226832,10.599296,12.000492Z" fill-rule="evenodd" fill="#FFFFFF" fill-opacity="1"/></g></g></svg>