<svg xmlns="http://www.w3.org/2000/svg" xmlns:xlink="http://www.w3.org/1999/xlink" fill="none" version="1.1" width="30" height="30" viewBox="0 0 30 30"><defs><clipPath id="master_svg0_0_1400"><rect x="0" y="0" width="30" height="30" rx="0"/></clipPath></defs><g clip-path="url(#master_svg0_0_1400)"><g><path d="M15,0C6.7156372,0,0,6.7156372,0,15C0,23.284376,6.7156372,30,15,30C23.284376,30,30,23.284376,30,15C30,6.7156372,23.284376,0,15,0C15,0,15,0,15,0Z" fill="#E8CDA7" fill-opacity="1"/></g><g transform="matrix(0,1,-1,0,30.862064361572266,-10.724693298339844)"><path d="M24.669504929956055,10.648550391616212C25.160530129956054,9.875397871616212,26.288855029956053,9.875396621616211,26.779879529956055,10.648550391616212C26.779879529956055,10.648550391616212,30.459167529956055,16.44192503161621,30.459167529956055,16.44192503161621C30.987691829956056,17.27413793161621,30.389830629956055,18.36206243161621,29.403980229956055,18.36206243161621C29.403980229956055,18.36206243161621,22.045405129956055,18.36206243161621,22.045405129956055,18.36206243161621C21.059555049956053,18.36206243161621,20.461692569956053,17.27413793161621,20.990217569956055,16.44192503161621C20.990217569956055,16.44192503161621,24.669504929956055,10.648550391616212,24.669504929956055,10.648550391616212C24.669504929956055,10.648550391616212,24.669504929956055,10.648550391616212,24.669504929956055,10.648550391616212Z" fill="#FFFFFF" fill-opacity="1"/></g></g></svg>