<svg xmlns="http://www.w3.org/2000/svg" xmlns:xlink="http://www.w3.org/1999/xlink" fill="none" version="1.1" width="24" height="24" viewBox="0 0 24 24"><g><g><path d="M23.999998,12.0005C23.999998,5.3722801,18.627474,0,11.999999,0C5.3725038,0,0,5.3722801,0,12.0005C0,18.627701,5.3725038,24,11.999999,24C18.627474,24,23.999998,18.627701,23.999998,12.0005ZM6.3389435,12.0005C6.3389435,8.8786097,8.8779888,6.34061,11.999999,6.34061C15.122029,6.34061,17.659235,8.8786097,17.659134,12.0005C17.659134,15.1194,15.122029,17.6604,11.999999,17.6604C8.8780088,17.6604,6.3389435,15.1195,6.3389435,12.0005ZM8.0277767,12.000492C8.0277767,9.8072224,9.8056908,8.0284424,12.000011,8.0284424C14.192372,8.0284424,15.972256,9.8072023,15.972256,12.000492C15.972256,14.193772,14.192352,15.972603,12.000011,15.972603C9.8056908,15.972603,8.0277767,14.193752,8.0277767,12.000492ZM10.599744,12.000492C10.599744,12.773203,11.22726,13.400723,12.000011,13.400723C12.772774,13.400723,13.400249,12.773222,13.400249,12.000492C13.400249,11.226832,12.772754,10.600323,12.000011,10.600323C11.22726,10.600323,10.599744,11.226832,10.599744,12.000492Z" fill-rule="evenodd" fill="#FFFFFF" fill-opacity="1"/></g></g></svg>