<svg xmlns="http://www.w3.org/2000/svg" xmlns:xlink="http://www.w3.org/1999/xlink" fill="none" version="1.1" width="22" height="22" viewBox="0 0 22 22"><defs><clipPath id="master_svg0_0_14"><rect x="0" y="0" width="22" height="22" rx="0"/></clipPath></defs><g clip-path="url(#master_svg0_0_14)"><g><path d="M7.402927834222412,2.75L14.554113234222411,2.75C15.328056234222412,2.75,16.04140723422241,3.1629004800000002,16.428333234222414,3.8308896L20.00398023422241,10.026559800000001C20.39090723422241,10.6945462,20.39090723422241,11.5203447,20.00398023422241,12.1882935L16.428333234222414,18.381856C16.04140723422241,19.049833,15.328056234222412,19.4627,14.556221234222413,19.4627L7.402927834222412,19.4627C6.631176034222412,19.4627,5.917788034222412,19.049833,5.530825634222412,18.381856L1.9552442142224122,12.1861849C1.568285569222412,11.5181818,1.568285569222412,10.6923823,1.9552442142224122,10.0243969L5.530825634222412,3.8308896C5.917788034222412,3.1629004800000002,6.631176034222412,2.75,7.402927834222412,2.75ZM14.928113234222412,4.6956012000000005C14.852396234222413,4.5615752,14.707563234222413,4.4794234,14.554113234222411,4.4794234L7.400774034222412,4.4794234C7.247286834222412,4.4794234,7.104607534222412,4.5615752,7.026782534222412,4.6956012000000005L3.4511990342224124,10.8891087C3.373373834222412,11.0231342,3.373373834222412,11.1874285,3.4511990342224124,11.3214645L7.0289459342224125,17.517162C7.104607534222412,17.651179,7.2494502342224125,17.733313000000003,7.402927834222412,17.733313000000003L14.556221234222413,17.733313000000003C14.709764234222412,17.733313000000003,14.852396234222413,17.651179,14.930222234222413,17.517162L18.50366923422241,11.3214645C18.581495234222412,11.1874285,18.581495234222412,11.0231342,18.50366923422241,10.8891087L14.928113234222412,4.6956012000000005ZM6.966264234222412,11.105278C6.966264234222412,8.8894558,8.762702434222412,7.0930176,10.978524734222413,7.0930176C13.194347234222413,7.0930176,14.990784234222412,8.8894558,14.990784234222412,11.105278C14.990784234222412,13.3211,13.194347234222413,15.117537,10.978524734222413,15.117537C8.762702434222412,15.117537,6.966264234222412,13.3211,6.966264234222412,11.105278ZM13.261363234222411,11.105278C13.261363234222411,9.8471251,12.236676234222411,8.8224378,10.978524734222413,8.8224378C9.720371734222413,8.8224378,8.69568443422241,9.8471251,8.69568443422241,11.105278C8.69568443422241,12.36343,9.718207834222412,13.388117,10.978524734222413,13.388117C12.238840234222412,13.388117,13.261363234222411,12.36343,13.261363234222411,11.105278Z" fill-rule="evenodd" fill="#E8CDA7" fill-opacity="1"/></g></g></svg>