<svg xmlns="http://www.w3.org/2000/svg" xmlns:xlink="http://www.w3.org/1999/xlink" fill="none" version="1.1" width="20" height="20" viewBox="0 0 20 20"><defs><clipPath id="master_svg0_0_227"><rect x="0" y="0" width="20" height="20" rx="0"/></clipPath></defs><g clip-path="url(#master_svg0_0_227)"><g><path d="M3.3333334922790527,6.066666507720948C3.3333334922790527,6.066666507720948,3.3333334922790527,5.638091407720947,3.3333334922790527,5.638091407720947C3.3333334922790527,4.828851517720947,4.000421822279053,4.167506832690948,4.814813092279053,4.167506832690948C4.814813092279053,4.167506832690948,7.989404692279053,4.167506832690948,7.989404692279053,4.167506832690948C7.989404692279053,4.167506832690948,7.989404692279053,5.6372580077209475,7.989404692279053,5.6372580077209475C7.989404692279053,5.6372580077209475,4.814813092279053,5.6372580077209475,4.814813092279053,5.6372580077209475C4.814813092279053,5.6372580077209475,4.814813092279053,15.195249507720947,4.814813092279053,15.195249507720947C4.814813092279053,15.195249507720947,15.185137492279052,15.195249507720947,15.185137492279052,15.195249507720947C15.185137492279052,15.195249507720947,15.185137492279052,12.569999207720947,15.185137492279052,12.569999207720947C15.185137492279052,12.569999207720947,16.666633492279054,12.569999207720947,16.666633492279054,12.569999207720947C16.666633492279054,12.569999207720947,16.666633492279054,15.196082507720947,16.666633492279054,15.196082507720947C16.666633492279054,16.005332507720947,15.999551492279053,16.666666507720947,15.185137492279052,16.666666507720947C15.185137492279052,16.666666507720947,4.814813092279053,16.666666507720947,4.814813092279053,16.666666507720947C4.000421822279053,16.666666507720947,3.3333334922790527,16.005332507720947,3.3333334922790527,15.196082507720947C3.3333334922790527,15.196082507720947,3.3333334922790527,6.066666507720948,3.3333334922790527,6.066666507720948C3.3333334922790527,6.066666507720948,3.3333334922790527,6.066666507720948,3.3333334922790527,6.066666507720948ZM15.124220492279052,6.678433207720947C15.124220492279052,6.678433207720947,15.129303492279053,9.365824707720947,15.129303492279053,9.365824707720947C15.129303492279053,9.365824707720947,16.60654949227905,9.365824707720947,16.60654949227905,9.365824707720947C16.60654949227905,9.365824707720947,16.60654949227905,4.166666507720947,16.60654949227905,4.166666507720947C16.60654949227905,4.166666507720947,11.368871192279054,4.166666507720947,11.368871192279054,4.166666507720947C11.368871192279054,4.166666507720947,11.368871192279054,5.633049807720948,11.368871192279054,5.633049807720948C11.368871192279054,5.633049807720948,14.076139492279053,5.638091407720947,14.076139492279053,5.638091407720947C14.076139492279053,5.638091407720947,9.011202292279052,10.665824407720947,9.011202292279052,10.665824407720947C9.011202292279052,10.665824407720947,10.059241292279053,11.706166707720946,10.059241292279053,11.706166707720946C10.059241292279053,11.706166707720946,15.124220492279052,6.678433207720947,15.124220492279052,6.678433207720947C15.124220492279052,6.678433207720947,15.124220492279052,6.678433207720947,15.124220492279052,6.678433207720947Z" fill="#818387" fill-opacity="1"/></g></g></svg>