<svg xmlns="http://www.w3.org/2000/svg" xmlns:xlink="http://www.w3.org/1999/xlink" fill="none" version="1.1" width="23.9990234375" height="24" viewBox="0 0 23.9990234375 24"><g><g><path d="M23.999001,12.0005C23.999001,5.3722801,18.626699,0,11.9995,0C5.3722801,0,0,5.3722801,0,12.0005C0,18.627701,5.3722801,24,11.9995,24C18.626699,24,23.999001,18.627701,23.999001,12.0005ZM6.3386798,12.0005C6.3386798,8.8786097,8.8776197,6.34061,11.9995,6.34061C15.1214,6.34061,17.658501,8.8786097,17.6584,12.0005C17.6584,15.1194,15.1214,17.6604,11.9995,17.6604C8.8776398,17.6604,6.3386798,15.1195,6.3386798,12.0005ZM8.0274658,12.00037C8.0274658,9.8071003,9.8053055,8.0283203,11.999536,8.0283203C14.191806,8.0283203,15.971616,9.8070803,15.971616,12.00037C15.971616,14.19365,14.191786,15.972481,11.999536,15.972481C9.8053055,15.972481,8.0274658,14.19363,8.0274658,12.00037ZM10.599326,12.00037C10.599326,12.773081,11.226816,13.4006,11.999536,13.4006C12.772266,13.4006,13.399715,12.7731,13.399715,12.00037C13.399715,11.22671,12.772245,10.600201,11.999536,10.600201C11.226816,10.600201,10.599326,11.22671,10.599326,12.00037Z" fill-rule="evenodd" fill="#494C52" fill-opacity="1"/></g></g></svg>