<svg xmlns="http://www.w3.org/2000/svg" xmlns:xlink="http://www.w3.org/1999/xlink" fill="none" version="1.1" width="84.6031494140625" height="38" viewBox="0 0 84.6031494140625 38"><defs><clipPath id="master_svg0_0_423"><rect x="25.001972198486328" y="0" width="37" height="38" rx="0"/></clipPath><linearGradient x1="0.5" y1="-3.0616171314629196e-17" x2="0.5" y2="1" id="master_svg1_0_131"><stop offset="0%" stop-color="#E8CDA8" stop-opacity="1"/><stop offset="100%" stop-color="#F4E6CF" stop-opacity="1"/></linearGradient></defs><g><g clip-path="url(#master_svg0_0_423)"><g><path d="M43.50197219848633,0C53.71905919848633,0,62.00197219848633,8.5068226,62.00197219848633,19C62.00197219848633,29.493227,53.71905919848633,38,43.50197219848633,38C33.28493019848633,38,25.001972198486328,29.493227,25.001972198486328,19C25.001972198486328,8.5068226,33.28493019848633,0,43.50197219848633,0C43.50197219848633,0,43.50197219848633,0,43.50197219848633,0ZM43.50197219848633,11.227274C43.05596719848633,11.227274,42.628155198486326,11.409247,42.31272919848632,11.733181C41.99730519848633,12.057099,41.82016719848633,12.496443,41.82016719848633,12.954549C41.82016719848633,12.954549,41.82016719848633,17.272741,41.82016719848633,17.272741C41.82016719848633,17.272741,37.61561119848633,17.272741,37.61561119848633,17.272741C37.61561119848633,17.272741,37.489472198486325,17.277018,37.489472198486325,17.277018C37.05413519848633,17.308683,36.64781519848633,17.512775,36.35634619848633,17.846384C36.064864198486326,18.179991,35.91106719848633,18.616991,35.92745519848633,19.064758C35.94382719848633,19.512684,36.12908919848633,19.936543,36.44409819848633,20.246717C36.75910619848633,20.557051,37.179195198486326,20.729317,37.61561119848633,20.727259C37.61561119848633,20.727259,41.82016719848633,20.727259,41.82016719848633,20.727259C41.82016719848633,20.727259,41.82016719848633,25.045485,41.82016719848633,25.045485C41.82016719848633,25.045485,41.82433119848633,25.174999,41.82433119848633,25.174999C41.85516319848632,25.622133,42.05388419848633,26.039343,42.378713198486324,26.338751C42.70354319848633,26.638161,43.12904119848633,26.796017,43.565025198486325,26.779234C44.001163198486324,26.762449,44.41386819848633,26.572134,44.71588119848633,26.248659C45.01804719848633,25.925184,45.18577919848633,25.493725,45.183777198486325,25.045485C45.183777198486325,25.045485,45.183777198486325,20.727259,45.183777198486325,20.727259C45.183777198486325,20.727259,49.38836319848633,20.727259,49.38836319848633,20.727259C49.38836319848633,20.727259,49.514471198486326,20.722982,49.514471198486326,20.722982C49.94983819848633,20.691317,50.35606719848633,20.487225,50.647596198486326,20.153616C50.93912719848633,19.820009,51.09282919848633,19.383009,51.07648819848633,18.935242C51.06014619848633,18.487316,50.87483819848633,18.063457,50.559875198486324,17.753283C50.24491319848633,17.442949,49.82480819848632,17.270683,49.38836319848633,17.272741C49.38836319848633,17.272741,45.183777198486325,17.272741,45.183777198486325,17.272741C45.183777198486325,17.272741,45.183777198486325,12.954549,45.183777198486325,12.954549C45.183777198486325,12.954549,45.17961319848633,12.825001,45.17961319848633,12.825001C45.14770119848633,12.390454,44.95715119848633,11.984329,44.64604219848633,11.688025C44.33493419848632,11.391719,43.92623919848633,11.227132,43.50197219848633,11.227274C43.50197219848633,11.227274,43.50197219848633,11.227274,43.50197219848633,11.227274Z" fill="url(#master_svg1_0_131)" fill-opacity="1"/></g></g></g></svg>