<svg xmlns="http://www.w3.org/2000/svg" xmlns:xlink="http://www.w3.org/1999/xlink" fill="none" version="1.1" width="14" height="14" viewBox="0 0 14 14"><defs><clipPath id="master_svg0_0_1568"><rect x="0" y="0" width="14" height="14" rx="0"/></clipPath></defs><g clip-path="url(#master_svg0_0_1568)"><g><path d="M10.734958599999999,6.1559253C10.686658900000001,6.1486859,10.6434927,6.1124783,10.6055174,6.0473022C10.5675426,5.9821324,10.5382009,5.862648,10.5174923,5.6888497000000005C10.4829597,5.4064345,10.394876499999999,5.1982429,10.2533593,5.0642745C10.1117849,4.9303118999999995,9.8925686,4.8343592,9.595652099999999,4.7764285C9.284893,4.7112584,9.010411699999999,4.579098500000001,8.7721844,4.3799598C8.5339575,4.1808214,8.335437299999999,3.9943531,8.1766191,3.8205545C8.024702099999999,3.6684853,7.9073176,3.6141769,7.8244557,3.6576236C7.7415929,3.7010703,7.7001591,3.7807305,7.7001591,3.8965919C7.7001591,3.8965919,7.7001591,4.3636672,7.7001591,4.3636672C7.7001591,4.3636672,7.7001591,5.3847113,7.7001591,5.3847113C7.7001591,5.7902331,7.6984324,6.2283401,7.6949849,6.6990318C7.6915317,7.1697302,7.6898046,7.6150703,7.6898046,8.0350699C7.6898046,8.0350699,7.6898046,9.1430545,7.6898046,9.1430545C7.6898046,9.1430545,7.6898046,9.762146,7.6898046,9.762146C7.6967053,9.9359798,7.6708117,10.1296463,7.6121221,10.3433218C7.5534272,10.5569382,7.442944,10.7578964,7.2806728,10.9461384C7.1184013,11.1344395,6.9026146,11.2955551,6.6333132,11.4294891C6.364012,11.5634804,6.0291147,11.6413555,5.6286100999999995,11.6630554C5.2212107,11.6847563,4.8535069,11.6087475,4.5255165,11.4349728C4.19752008,11.2611389,3.94375402,11.0420971,3.76421997,10.7777882C3.584685907,10.5134802,3.4966451365,10.2237968,3.500097714423,9.9087963C3.5035502911,9.593796300000001,3.6330220300000002,9.298687900000001,3.88851303,9.023529100000001C4.14400512,8.748370600000001,4.42020738,8.556453699999999,4.7171295,8.447837400000001C5.0140518,8.3392205,5.3006198,8.2794871,5.576822,8.2686372C5.85303,8.2577872,6.0998906999999996,8.277679,6.3174038,8.3283701C6.5349169,8.3790627,6.6954618,8.4261374,6.7990382,8.4695959C6.7990382,8.4695959,6.7990382,5.3955728999999994,6.7990382,5.3955728999999994C6.7990382,4.5410824000000005,6.8024914,3.5779693999999997,6.8093924999999995,2.50623375C6.8093924999999995,2.29623073,6.8611865000000005,2.12424588,6.9647629,1.99027923C7.0683396,1.85631198,7.2064435,1.778466396,7.379069100000001,1.7567420569C7.5240798,1.735017662,7.6431909,1.765793879,7.736413,1.849070475C7.8296351,1.93234719,7.9245787,2.04821068,8.0212483,2.19666037C8.117924200000001,2.34511119,8.2370348,2.51347291,8.3785925,2.70174968C8.520149700000001,2.8900323,8.7117686,3.0746865999999997,8.9534492,3.2557242C9.1606026,3.4222777,9.3418436,3.5417619,9.4972439,3.6141769C9.6525855,3.686592,9.797601700000001,3.7535703,9.9322348,3.8151238C10.066926500000001,3.876677,10.1998096,3.9509003,10.3310013,4.0377996C10.4622507,4.1246989,10.6072092,4.2659066,10.7660508,4.4614224C10.924892400000001,4.6497052,11.021550699999999,4.8452208,11.0560842,5.047981699999999C11.0906167,5.2507427,11.0923085,5.4354031,11.0612755,5.601956599999999C11.0301838,5.7685099,10.980134,5.9042869,10.9110675,6.0092869C10.842000500000001,6.1142864,10.7833171,6.1631641,10.734958599999999,6.1559253C10.734958599999999,6.1559253,10.734958599999999,6.1559253,10.734958599999999,6.1559253C10.734958599999999,6.1559253,10.734958599999999,6.1559253,10.734958599999999,6.1559253Z" fill="#FFFFFF" fill-opacity="1"/></g></g></svg>