<svg xmlns="http://www.w3.org/2000/svg" xmlns:xlink="http://www.w3.org/1999/xlink" fill="none" version="1.1" width="24" height="24" viewBox="0 0 24 24"><g><g><path d="M9.4285698,12.8571C9.4285698,11.4,10.5429,10.2857,12,10.2857C13.4571,10.2857,14.5714,11.4,14.5714,12.8571C14.5714,14.3143,13.4571,15.4286,12,15.4286C10.5429,15.4286,9.4285698,14.3143,9.4285698,12.8571C9.4285698,12.8571,9.4285698,12.8571,9.4285698,12.8571ZM12,24C5.4000001,24,0,18.6,0,12C0,5.4000001,5.4000001,0,12,0C13.2,0,14.3143,0.17142799,15.4286,0.51428598C15.4286,0.51428598,15.4286,9.0857096,15.4286,9.0857096C14.4857,8.22857,13.2857,7.7142901,12,7.7142901C9.1714296,7.7142901,6.8571401,10.0286,6.8571401,12.8571C6.8571401,15.6857,9.1714296,18,12,18C14.8286,18,17.1429,15.6857,17.1429,12.8571C17.1429,12.8571,17.1429,1.2,17.1429,1.2C21.1714,3.08571,24,7.2857099,24,12C24,18.6,18.6,24,12,24C12,24,12,24,12,24Z" fill="#494C52" fill-opacity="1"/></g></g></svg>